<?xml version="1.0" encoding="UTF-8"?>
<svg id="_圖層_2" data-name="圖層_2" xmlns="http://www.w3.org/2000/svg" viewBox="0 0 5442.52 5669.29">
  <defs>
    <style>
      .cls-1 {
        fill: #040000;
      }

      .cls-2 {
        fill: none;
      }

      .cls-3 {
        fill: #fcc800;
      }
    </style>
  </defs>
  <g>
    <g>
      <polygon class="cls-3" points="1680.78 1201.08 1712.05 974.52 1823.79 876.41 1922.5 988.83 1680.78 1201.08"/>
      <polygon class="cls-1" points="1497.06 1362.39 1528.34 1135.83 1712.05 974.52 1680.78 1201.08 1497.06 1362.39"/>
      <polygon class="cls-3" points="1313.35 1523.71 1344.62 1297.15 1528.34 1135.83 1497.06 1362.39 1313.35 1523.71"/>
      <polygon class="cls-1" points="1129.63 1685.02 1160.91 1458.46 1344.62 1297.15 1313.35 1523.71 1129.63 1685.02"/>
      <polygon class="cls-3" points="945.92 1846.34 977.2 1619.77 1160.91 1458.46 1129.63 1685.02 945.92 1846.34"/>
      <polygon class="cls-1" points="762.21 2007.65 793.48 1781.09 977.2 1619.77 945.92 1846.34 762.21 2007.65"/>
      <polygon class="cls-3" points="578.5 2168.96 609.77 1942.4 793.48 1781.09 762.21 2007.65 578.5 2168.96"/>
      <polygon class="cls-1" points="394.78 2330.28 426.06 2103.72 609.77 1942.4 578.5 2168.96 394.78 2330.28"/>
      <polygon class="cls-1" points="27.35 2652.91 58.63 2426.35 242.35 2265.03 211.07 2491.59 27.35 2652.91"/>
      <polygon class="cls-3" points="211.07 2491.59 242.35 2265.03 426.06 2103.72 394.78 2330.28 211.07 2491.59"/>
      <polygon class="cls-3" points="-156.36 2814.22 -125.08 2587.66 58.63 2426.35 27.35 2652.91 -156.36 2814.22"/>
    </g>
    <g>
      <polygon class="cls-1" points="2968.07 70.74 2999.35 -155.83 3183.06 -317.14 3151.79 -90.58 2968.07 70.74"/>
      <polygon class="cls-3" points="2784.36 232.05 2815.63 5.49 2999.35 -155.83 2968.07 70.74 2784.36 232.05"/>
      <polygon class="cls-1" points="2600.65 393.36 2631.92 166.8 2815.63 5.49 2784.36 232.05 2600.65 393.36"/>
      <polygon class="cls-1" points="2233.22 715.99 2264.49 489.43 2448.21 328.11 2416.94 554.68 2233.22 715.99"/>
      <polygon class="cls-3" points="2416.94 554.68 2448.21 328.11 2631.92 166.8 2600.65 393.36 2416.94 554.68"/>
      <polygon class="cls-3" points="2049.51 877.31 2080.78 650.75 2264.49 489.43 2233.22 715.99 2049.51 877.31"/>
      <polygon class="cls-1" points="1865.79 1038.62 1897.07 812.06 2080.78 650.75 2049.51 877.31 1865.79 1038.62"/>
      <polygon class="cls-3" points="1682.08 1199.93 1713.35 973.37 1897.07 812.06 1865.79 1038.62 1682.08 1199.93"/>
      <polygon class="cls-1" points="1564.58 1303.11 1514.3 1245.85 1529.64 1134.69 1713.35 973.37 1682.08 1199.93 1564.58 1303.11"/>
      <polygon class="cls-3" points="1514.3 1245.85 1465.86 1190.69 1529.64 1134.69 1514.3 1245.85"/>
    </g>
  </g>
  <g>
    <g>
      <polygon class="cls-3" points="3885.81 4934.98 3917.09 4708.41 4028.82 4610.3 4127.54 4722.72 3885.81 4934.98"/>
      <polygon class="cls-1" points="3702.1 5096.29 3733.37 4869.73 3917.09 4708.41 3885.81 4934.98 3702.1 5096.29"/>
      <polygon class="cls-3" points="3518.38 5257.61 3549.66 5031.04 3733.37 4869.73 3702.1 5096.29 3518.38 5257.61"/>
      <polygon class="cls-1" points="3334.67 5418.92 3365.94 5192.36 3549.66 5031.04 3518.38 5257.61 3334.67 5418.92"/>
      <polygon class="cls-3" points="3150.96 5580.23 3182.23 5353.67 3365.94 5192.36 3334.67 5418.92 3150.96 5580.23"/>
      <polygon class="cls-1" points="2967.25 5741.55 2998.52 5514.99 3182.23 5353.67 3150.96 5580.23 2967.25 5741.55"/>
      <polygon class="cls-3" points="2783.53 5902.86 2814.81 5676.3 2998.52 5514.99 2967.25 5741.55 2783.53 5902.86"/>
    </g>
    <g>
      <polyline class="cls-3" points="5464.31 3548.93 5356.82 3643.32 5388.1 3416.76 5571.81 3255.44 5540.53 3482.01 5464.31 3548.93"/>
      <polygon class="cls-1" points="5173.11 3804.63 5204.38 3578.07 5388.1 3416.76 5356.82 3643.32 5173.11 3804.63"/>
      <polygon class="cls-3" points="4989.4 3965.95 5020.67 3739.38 5204.38 3578.07 5173.11 3804.63 4989.4 3965.95"/>
      <polygon class="cls-1" points="4805.68 4127.26 4836.96 3900.7 5020.67 3739.38 4989.4 3965.95 4805.68 4127.26"/>
      <polygon class="cls-1" points="4438.25 4449.89 4469.53 4223.33 4653.25 4062.01 4621.97 4288.57 4438.25 4449.89"/>
      <polygon class="cls-3" points="4621.97 4288.57 4653.25 4062.01 4836.96 3900.7 4805.68 4127.26 4621.97 4288.57"/>
      <polygon class="cls-3" points="4254.54 4611.2 4285.82 4384.64 4469.53 4223.33 4438.25 4449.89 4254.54 4611.2"/>
      <polygon class="cls-1" points="4070.83 4772.52 4102.1 4545.96 4285.82 4384.64 4254.54 4611.2 4070.83 4772.52"/>
      <polygon class="cls-3" points="3887.12 4933.83 3918.39 4707.27 4102.1 4545.96 4070.83 4772.52 3887.12 4933.83"/>
      <polygon class="cls-1" points="3769.62 5037.01 3719.34 4979.75 3734.68 4868.58 3918.39 4707.27 3887.12 4933.83 3769.62 5037.01"/>
      <polygon class="cls-3" points="3719.34 4979.75 3670.9 4924.58 3734.68 4868.58 3719.34 4979.75"/>
    </g>
  </g>
  <g>
    <g>
      <polygon class="cls-3" points="2429.21 5117.7 2623.86 4997.61 2770.65 5021.33 2746.78 5169.03 2429.21 5117.7"/>
      <polygon class="cls-1" points="2187.86 5078.69 2382.5 4958.6 2623.86 4997.61 2429.21 5117.7 2187.86 5078.69"/>
      <polygon class="cls-3" points="1946.5 5039.69 2141.15 4919.59 2382.5 4958.6 2187.86 5078.69 1946.5 5039.69"/>
      <polygon class="cls-1" points="1705.15 5000.68 1899.79 4880.58 2141.15 4919.59 1946.5 5039.69 1705.15 5000.68"/>
      <polygon class="cls-3" points="1463.8 4961.67 1658.44 4841.58 1899.79 4880.58 1705.15 5000.68 1463.8 4961.67"/>
      <polygon class="cls-1" points="1222.45 4922.66 1417.09 4802.57 1658.44 4841.58 1463.8 4961.67 1222.45 4922.66"/>
      <polygon class="cls-3" points="981.09 4883.65 1175.74 4763.56 1417.09 4802.57 1222.45 4922.66 981.09 4883.65"/>
      <polygon class="cls-1" points="739.74 4844.65 934.39 4724.55 1175.74 4763.56 981.09 4883.65 739.74 4844.65"/>
      <polygon class="cls-1" points="257.03 4766.63 451.68 4646.54 693.03 4685.55 498.39 4805.64 257.03 4766.63"/>
      <polygon class="cls-3" points="498.39 4805.64 693.03 4685.55 934.39 4724.55 739.74 4844.65 498.39 4805.64"/>
      <polygon class="cls-3" points="15.68 4727.62 210.32 4607.53 451.68 4646.54 257.03 4766.63 15.68 4727.62"/>
      <polygon class="cls-1" points="-225.67 4688.61 -31.03 4568.52 210.32 4607.53 15.68 4727.62 -225.67 4688.61"/>
    </g>
    <g>
      <polygon class="cls-3" points="5327.16 5586.07 5521.8 5465.98 5668.59 5489.71 5644.72 5637.4 5327.16 5586.07"/>
      <polygon class="cls-1" points="5085.81 5547.07 5280.45 5426.97 5521.8 5465.98 5327.16 5586.07 5085.81 5547.07"/>
      <polygon class="cls-3" points="4844.45 5508.06 5039.09 5387.96 5280.45 5426.97 5085.81 5547.07 4844.45 5508.06"/>
      <polygon class="cls-1" points="4603.1 5469.05 4797.74 5348.96 5039.09 5387.96 4844.45 5508.06 4603.1 5469.05"/>
      <polyline class="cls-3" points="4502.96 5452.87 4361.75 5430.04 4556.39 5309.95 4797.74 5348.96 4603.1 5469.05 4502.96 5452.87"/>
      <polygon class="cls-1" points="4120.39 5391.03 4315.04 5270.94 4556.39 5309.95 4361.75 5430.04 4120.39 5391.03"/>
      <polygon class="cls-3" points="3879.04 5352.03 4073.69 5231.93 4315.04 5270.94 4120.39 5391.03 3879.04 5352.03"/>
      <polygon class="cls-1" points="3637.69 5313.02 3832.33 5192.93 4073.69 5231.93 3879.04 5352.03 3637.69 5313.02"/>
      <polygon class="cls-1" points="3154.98 5235 3349.62 5114.91 3590.98 5153.92 3396.34 5274.01 3154.98 5235"/>
      <polygon class="cls-3" points="3396.34 5274.01 3590.98 5153.92 3832.33 5192.93 3637.69 5313.02 3396.34 5274.01"/>
      <polygon class="cls-3" points="2913.63 5195.99 3108.27 5075.9 3349.62 5114.91 3154.98 5235 2913.63 5195.99"/>
      <polygon class="cls-1" points="2672.28 5156.99 2866.92 5036.89 3108.27 5075.9 2913.63 5195.99 2672.28 5156.99"/>
      <polygon class="cls-3" points="2430.92 5117.98 2625.57 4997.89 2866.92 5036.89 2672.28 5156.99 2430.92 5117.98"/>
      <polygon class="cls-1" points="2276.56 5093.03 2288.72 5017.8 2384.22 4958.88 2625.57 4997.89 2430.92 5117.98 2276.56 5093.03"/>
      <polygon class="cls-3" points="2288.72 5017.8 2300.43 4945.34 2384.22 4958.88 2288.72 5017.8"/>
    </g>
  </g>
  <g>
    <g>
      <polygon class="cls-3" points="2635.93 737.22 2784.57 563.39 2931.59 541.12 2953.99 689.04 2635.93 737.22"/>
      <polygon class="cls-1" points="2394.21 773.83 2542.84 600 2784.57 563.39 2635.93 737.22 2394.21 773.83"/>
      <polygon class="cls-3" points="2152.47 810.44 2301.11 636.61 2542.84 600 2394.21 773.83 2152.47 810.44"/>
      <polygon class="cls-1" points="1910.75 847.06 2059.38 673.23 2301.11 636.61 2152.47 810.44 1910.75 847.06"/>
      <polygon class="cls-3" points="1669.02 883.67 1817.65 709.84 2059.38 673.23 1910.75 847.06 1669.02 883.67"/>
      <polygon class="cls-1" points="1427.29 920.28 1575.93 746.45 1817.65 709.84 1669.02 883.67 1427.29 920.28"/>
      <polygon class="cls-3" points="1185.57 956.9 1334.2 783.07 1575.93 746.45 1427.29 920.28 1185.57 956.9"/>
      <polygon class="cls-1" points="943.84 993.51 1092.47 819.68 1334.2 783.07 1185.57 956.9 943.84 993.51"/>
      <polygon class="cls-1" points="460.38 1066.74 609.01 892.91 850.75 856.29 702.11 1030.12 460.38 1066.74"/>
      <polygon class="cls-3" points="702.11 1030.12 850.75 856.29 1092.47 819.68 943.84 993.51 702.11 1030.12"/>
      <polygon class="cls-3" points="218.65 1103.35 367.29 929.52 609.01 892.91 460.38 1066.74 218.65 1103.35"/>
      <polygon class="cls-1" points="-23.07 1139.97 125.56 966.14 367.29 929.52 218.65 1103.35 -23.07 1139.97"/>
      <polygon class="cls-3" points="-264.8 1176.58 -116.17 1002.75 125.56 966.14 -23.07 1139.97 -264.8 1176.58"/>
    </g>
    <g>
      <polygon class="cls-1" points="5296.66 334.21 5445.29 160.38 5687.02 123.76 5538.38 297.59 5296.66 334.21"/>
      <polygon class="cls-3" points="5054.92 370.82 5203.56 196.99 5445.29 160.38 5296.66 334.21 5054.92 370.82"/>
      <polygon class="cls-1" points="4813.2 407.43 4961.83 233.6 5203.56 196.99 5054.92 370.82 4813.2 407.43"/>
      <polyline class="cls-3" points="4712.91 422.62 4571.47 444.05 4720.1 270.22 4961.83 233.6 4813.2 407.43 4712.91 422.62"/>
      <polygon class="cls-1" points="4329.74 480.66 4478.38 306.83 4720.1 270.22 4571.47 444.05 4329.74 480.66"/>
      <polygon class="cls-3" points="4088.02 517.27 4236.65 343.44 4478.38 306.83 4329.74 480.66 4088.02 517.27"/>
      <polygon class="cls-1" points="3846.29 553.89 3994.92 380.06 4236.65 343.44 4088.02 517.27 3846.29 553.89"/>
      <polygon class="cls-1" points="3362.83 627.12 3511.46 453.29 3753.2 416.67 3604.56 590.5 3362.83 627.12"/>
      <polygon class="cls-3" points="3604.56 590.5 3753.2 416.67 3994.92 380.06 3846.29 553.89 3604.56 590.5"/>
      <polygon class="cls-3" points="3121.1 663.73 3269.74 489.9 3511.46 453.29 3362.83 627.12 3121.1 663.73"/>
      <polygon class="cls-1" points="2879.38 700.34 3028.01 526.51 3269.74 489.9 3121.1 663.73 2879.38 700.34"/>
      <polygon class="cls-3" points="2637.65 736.96 2786.28 563.13 3028.01 526.51 2879.38 700.34 2637.65 736.96"/>
      <polygon class="cls-1" points="2483.04 760.37 2471.63 685.03 2544.56 599.74 2786.28 563.13 2637.65 736.96 2483.04 760.37"/>
      <polygon class="cls-3" points="2471.63 685.03 2460.64 612.45 2544.56 599.74 2471.63 685.03"/>
    </g>
  </g>
  <rect class="cls-2" width="5442.52" height="5669.29"/>
</svg>