<?xml version="1.0" encoding="UTF-8"?>
<svg id="Dimensions" xmlns="http://www.w3.org/2000/svg" viewBox="0 0 5442.52 5669.29">
  <defs>
    <style>
      .cls-1 {
        fill: none;
      }

      .cls-2 {
        fill: #fcc800;
      }

      .cls-3 {
        fill: #231815;
      }
    </style>
  </defs>
  <rect class="cls-1" x="1930.67" y="-917.33" width="5442.52" height="5669.29"/>
  <g>
    <rect class="cls-2" x="-1234.1" y="827.95" width="6347" height="166.76" transform="translate(-121.57 1498) rotate(-41.06)"/>
    <g>
      <path class="cls-3" d="M6.43,2542.22c7.88,9.84,16.55,20.19,26,31.04s18.58,20.94,27.25,30.09l-30.18,26.29-60.51-28.26,41.62,44.71-21.67,18.88c-9.05-11.3-17.71-21.69-25.99-31.19s-17.31-19.42-27.26-29.93l31.03-27.03,61.69,29.45-42.64-46.05,20.66-17.99Z"/>
      <path class="cls-3" d="M70.76,2532.31l36-31.36,30.41,34.91-14.84,12.93-14.77-13.38c2.97,6.81,3.41,13.39,1.33,19.75-2.08,6.36-6.23,12.25-12.47,17.69-5.68,4.95-11.82,8.08-18.44,9.39-6.62,1.31-13.23.7-19.84-1.84-6.61-2.54-12.66-6.96-18.15-13.26-8.76-10.06-12.69-20.63-11.76-31.72.92-11.08,7.73-22.16,20.44-33.23,7.25-6.32,14.67-10.71,22.27-13.17,7.59-2.46,15.48-2.91,23.67-1.34-1.4,3.5-4.1,10.39-8.08,20.68l-1.08,3.02c-4.1-.28-8.09.3-11.97,1.75-3.88,1.45-7.45,3.6-10.71,6.43-5.4,4.7-8.18,9.62-8.35,14.76-.17,5.14,1.56,9.79,5.18,13.95,3.92,4.5,8.49,6.89,13.73,7.17,5.24.28,10.78-2.12,16.63-7.22,2.53-2.2,4.67-4.71,6.42-7.52,1.75-2.81,2.66-5.83,2.72-9.05l-16.44,14.32-11.9-13.66Z"/>
    </g>
    <g>
      <path class="cls-3" d="M356.5,2304.31l-28.89-42.01,20.57-17.92,42.02,71.05-25.88,22.55-35.48-29.15,23.08,39.95-24.79,21.59-64.62-51.37,20.57-17.92,37.13,33.94-26.08-43.56,22.51-19.61,39.85,32.47Z"/>
      <path class="cls-3" d="M454.72,2259.24c-3.86-2.27-8.79-5.04-14.8-8.31l-26.9,23.43,6.29,15.73-21.16,18.43-29.71-81.78,31.03-27.03,77.1,40.5-21.84,19.02ZM423.65,2241.97c-7.28-4.04-14.61-8.03-22-11.98l-6.8-3.72c2.49,6.83,6.33,17.08,11.51,30.75l17.28-15.06Z"/>
      <path class="cls-3" d="M520.39,2152.06c.55,5.45-1.41,11.46-5.88,18.02,1.46.31,2.55.6,3.27.86l30.18,7.07-22.93,19.98c-6.49-2.45-16.07-5.57-28.76-9.35l-12.39,10.8,17.04,19.56-19.9,17.33c-9.05-11.3-17.71-21.69-25.99-31.19-8.27-9.5-17.39-19.5-27.34-30.02l19.9-17.33.07.08,17.28-15.06c11.35-9.89,20.87-14.97,28.55-15.23,7.68-.26,14.24,2.72,19.67,8.96,4.26,4.89,6.66,10.06,7.21,15.52ZM461.77,2174.06l8.37,9.61,11.38-9.91c4.78-4.16,8.26-7.46,10.43-9.9,2.18-2.44,3.45-4.41,3.82-5.92.37-1.51-.01-2.91-1.14-4.2s-2.36-1.8-3.85-1.69c-1.49.11-3.59,1.1-6.31,2.97-2.72,1.87-6.49,4.92-11.33,9.13l-11.38,9.91Z"/>
      <path class="cls-3" d="M572.97,2048.73c7.88,9.84,16.55,20.19,26,31.04,9.5,10.91,18.58,20.94,27.25,30.09l-30.18,26.29-60.51-28.26,41.62,44.71-21.67,18.88c-9.05-11.3-17.71-21.69-25.99-31.19-8.23-9.44-17.31-19.42-27.26-29.93l31.03-27.03,61.69,29.45-42.64-46.05,20.66-17.99Z"/>
      <path class="cls-3" d="M643.24,2016.88c-6.98,5.49-12.1,9.6-15.35,12.34l25.12,28.84c3.21-2.89,7.99-7.4,14.33-13.52l14.62,16.78-48.99,42.67-14.62-16.78c6.76-5.29,11.85-9.38,15.27-12.26l-25.12-28.84c-3.32,2.99-8.07,7.48-14.24,13.44l-14.62-16.78,48.99-42.67,14.62,16.78Z"/>
      <path class="cls-3" d="M706.18,1932.69c7.88,9.84,16.55,20.19,26,31.04s18.58,20.94,27.25,30.09l-30.18,26.29-60.51-28.26,41.62,44.71-21.67,18.88c-9.05-11.3-17.71-21.69-25.99-31.19s-17.31-19.42-27.26-29.93l31.03-27.03,61.69,29.45-42.64-46.05,20.66-17.99Z"/>
      <path class="cls-3" d="M770.51,1922.77l36-31.36,30.41,34.91-14.84,12.93-14.77-13.38c2.97,6.81,3.41,13.39,1.33,19.75-2.08,6.36-6.23,12.25-12.47,17.69-5.68,4.95-11.82,8.08-18.44,9.39-6.62,1.31-13.23.7-19.84-1.84-6.61-2.54-12.66-6.96-18.15-13.26-8.76-10.06-12.69-20.63-11.76-31.72.92-11.08,7.73-22.16,20.44-33.23,7.25-6.32,14.67-10.71,22.27-13.17,7.59-2.46,15.48-2.91,23.67-1.34-1.4,3.5-4.1,10.39-8.08,20.68l-1.08,3.02c-4.1-.28-8.09.3-11.97,1.75-3.88,1.45-7.45,3.6-10.71,6.43-5.4,4.7-8.18,9.62-8.35,14.76-.17,5.14,1.56,9.79,5.18,13.95,3.92,4.5,8.49,6.89,13.73,7.17,5.24.28,10.78-2.12,16.63-7.22,2.53-2.2,4.67-4.71,6.42-7.52,1.75-2.81,2.66-5.83,2.72-9.05l-16.44,14.32-11.9-13.66Z"/>
    </g>
    <g>
      <path class="cls-3" d="M1056.26,1694.77l-28.89-42.01,20.57-17.92,42.02,71.05-25.88,22.55-35.48-29.15,23.08,39.95-24.79,21.59-64.62-51.37,20.57-17.92,37.13,33.94-26.08-43.56,22.51-19.61,39.85,32.47Z"/>
      <path class="cls-3" d="M1154.47,1649.71c-3.86-2.27-8.79-5.04-14.8-8.31l-26.9,23.43,6.29,15.73-21.16,18.43-29.71-81.78,31.03-27.03,77.1,40.5-21.84,19.02ZM1123.4,1632.43c-7.28-4.04-14.61-8.03-22-11.98l-6.8-3.72c2.49,6.83,6.33,17.08,11.51,30.75l17.28-15.06Z"/>
      <path class="cls-3" d="M1220.14,1542.53c.55,5.45-1.41,11.46-5.88,18.02,1.46.31,2.55.6,3.27.86l30.18,7.07-22.93,19.98c-6.49-2.45-16.07-5.57-28.76-9.35l-12.39,10.8,17.04,19.56-19.9,17.33c-9.05-11.3-17.71-21.69-25.99-31.19-8.27-9.5-17.39-19.5-27.34-30.02l19.9-17.33.07.08,17.28-15.06c11.35-9.89,20.87-14.97,28.55-15.23,7.68-.26,14.24,2.72,19.67,8.96,4.26,4.89,6.66,10.06,7.21,15.52ZM1161.52,1564.52l8.37,9.61,11.38-9.91c4.78-4.16,8.26-7.46,10.43-9.9,2.18-2.44,3.45-4.41,3.82-5.92.37-1.51-.01-2.91-1.14-4.2s-2.36-1.8-3.85-1.69c-1.49.11-3.59,1.1-6.31,2.97-2.72,1.87-6.49,4.92-11.33,9.13l-11.38,9.91Z"/>
      <path class="cls-3" d="M1272.72,1439.19c7.88,9.84,16.55,20.19,26,31.04,9.5,10.91,18.58,20.94,27.25,30.09l-30.18,26.29-60.51-28.26,41.62,44.71-21.67,18.88c-9.05-11.3-17.71-21.69-25.99-31.19-8.23-9.44-17.31-19.42-27.26-29.93l31.03-27.03,61.69,29.45-42.64-46.05,20.66-17.99Z"/>
      <path class="cls-3" d="M1342.99,1407.34c-6.98,5.49-12.1,9.6-15.35,12.34l25.12,28.84c3.21-2.89,7.99-7.4,14.33-13.52l14.62,16.78-48.99,42.67-14.62-16.78c6.76-5.29,11.85-9.38,15.27-12.26l-25.12-28.84c-3.32,2.99-8.07,7.48-14.24,13.44l-14.62-16.78,48.99-42.67,14.62,16.78Z"/>
      <path class="cls-3" d="M1405.93,1323.15c7.88,9.84,16.55,20.19,26,31.04s18.58,20.94,27.25,30.09l-30.18,26.29-60.51-28.26,41.62,44.71-21.67,18.88c-9.05-11.3-17.71-21.69-25.99-31.19-8.23-9.44-17.31-19.42-27.26-29.93l31.03-27.03,61.69,29.45-42.64-46.05,20.66-17.99Z"/>
      <path class="cls-3" d="M1470.26,1313.24l36-31.36,30.41,34.91-14.84,12.93-14.77-13.38c2.97,6.81,3.41,13.39,1.33,19.75-2.08,6.36-6.23,12.25-12.47,17.69-5.68,4.95-11.82,8.08-18.44,9.39-6.62,1.31-13.23.7-19.84-1.84-6.61-2.54-12.66-6.96-18.15-13.26-8.76-10.06-12.69-20.63-11.76-31.72.92-11.08,7.73-22.16,20.44-33.23,7.25-6.32,14.67-10.71,22.27-13.17,7.59-2.46,15.48-2.91,23.67-1.34-1.4,3.5-4.1,10.39-8.08,20.68l-1.08,3.02c-4.1-.28-8.09.3-11.97,1.75-3.88,1.45-7.45,3.6-10.71,6.43-5.4,4.7-8.18,9.62-8.35,14.76-.17,5.14,1.56,9.79,5.18,13.95,3.92,4.5,8.49,6.89,13.73,7.17,5.24.28,10.78-2.12,16.63-7.22,2.53-2.2,4.67-4.71,6.42-7.52,1.75-2.81,2.66-5.83,2.72-9.05l-16.44,14.32-11.9-13.66Z"/>
    </g>
    <g>
      <path class="cls-3" d="M1756.01,1085.24l-28.89-42.01,20.57-17.92,42.02,71.05-25.88,22.55-35.48-29.15,23.08,39.95-24.79,21.59-64.62-51.37,20.57-17.92,37.13,33.94-26.08-43.56,22.51-19.61,39.85,32.47Z"/>
      <path class="cls-3" d="M1854.22,1040.17c-3.86-2.27-8.79-5.04-14.8-8.31l-26.9,23.43,6.29,15.73-21.16,18.43-29.71-81.78,31.03-27.03,77.1,40.5-21.84,19.02ZM1823.15,1022.9c-7.28-4.04-14.61-8.03-22-11.98l-6.8-3.72c2.49,6.83,6.33,17.08,11.51,30.75l17.28-15.06Z"/>
      <path class="cls-3" d="M1919.89,932.99c.55,5.45-1.41,11.46-5.88,18.02,1.46.31,2.55.6,3.27.86l30.18,7.07-22.93,19.98c-6.49-2.45-16.07-5.57-28.76-9.35l-12.39,10.8,17.04,19.56-19.9,17.33c-9.05-11.3-17.71-21.69-25.99-31.19-8.27-9.5-17.39-19.5-27.34-30.02l19.9-17.33.07.08,17.28-15.06c11.35-9.89,20.87-14.97,28.55-15.23,7.68-.26,14.24,2.72,19.67,8.96,4.26,4.89,6.66,10.06,7.21,15.52ZM1861.28,954.99l8.37,9.61,11.38-9.91c4.78-4.16,8.26-7.46,10.43-9.9,2.18-2.44,3.45-4.41,3.82-5.92.37-1.51-.01-2.91-1.14-4.2s-2.36-1.8-3.85-1.69c-1.49.11-3.59,1.1-6.31,2.97-2.72,1.87-6.49,4.92-11.33,9.13l-11.38,9.91Z"/>
      <path class="cls-3" d="M1972.47,829.66c7.88,9.84,16.55,20.19,26,31.04,9.5,10.91,18.58,20.94,27.25,30.09l-30.18,26.29-60.51-28.26,41.62,44.71-21.67,18.88c-9.05-11.3-17.71-21.69-25.99-31.19-8.23-9.44-17.31-19.42-27.26-29.93l31.03-27.03,61.69,29.45-42.64-46.05,20.66-17.99Z"/>
      <path class="cls-3" d="M2042.74,797.81c-6.98,5.49-12.1,9.6-15.35,12.34l25.12,28.84c3.21-2.89,7.99-7.4,14.33-13.52l14.62,16.78-48.99,42.67-14.62-16.78c6.76-5.29,11.85-9.38,15.27-12.26l-25.12-28.84c-3.32,2.99-8.07,7.48-14.24,13.44l-14.62-16.78,48.99-42.67,14.62,16.78Z"/>
      <path class="cls-3" d="M2105.68,713.62c7.88,9.84,16.55,20.19,26,31.04s18.58,20.94,27.25,30.09l-30.18,26.29-60.51-28.26,41.62,44.71-21.67,18.88c-9.05-11.3-17.71-21.69-25.99-31.19-8.23-9.44-17.31-19.42-27.26-29.93l31.03-27.03,61.69,29.45-42.64-46.05,20.66-17.99Z"/>
      <path class="cls-3" d="M2170.01,703.7l36-31.36,30.41,34.91-14.84,12.93-14.77-13.38c2.97,6.81,3.41,13.39,1.33,19.75-2.08,6.36-6.23,12.25-12.47,17.69-5.68,4.95-11.82,8.08-18.44,9.39-6.62,1.31-13.23.7-19.84-1.84-6.61-2.54-12.66-6.96-18.15-13.26-8.76-10.06-12.69-20.63-11.76-31.72.92-11.08,7.73-22.16,20.44-33.23,7.25-6.32,14.67-10.71,22.27-13.17,7.59-2.46,15.48-2.91,23.67-1.34-1.4,3.5-4.1,10.39-8.08,20.68l-1.08,3.02c-4.1-.28-8.09.3-11.97,1.75-3.88,1.45-7.45,3.6-10.71,6.43-5.4,4.7-8.18,9.62-8.35,14.76-.17,5.14,1.56,9.79,5.18,13.95,3.92,4.5,8.49,6.89,13.73,7.17,5.24.28,10.78-2.12,16.63-7.22,2.53-2.2,4.67-4.71,6.42-7.52,1.75-2.81,2.66-5.83,2.72-9.05l-16.44,14.32-11.9-13.66Z"/>
    </g>
    <g>
      <path class="cls-3" d="M2455.76,475.7l-28.89-42.01,20.57-17.92,42.02,71.05-25.88,22.55-35.48-29.15,23.08,39.95-24.79,21.59-64.62-51.37,20.57-17.92,37.13,33.94-26.08-43.56,22.51-19.61,39.85,32.47Z"/>
      <path class="cls-3" d="M2553.97,430.64c-3.86-2.27-8.79-5.04-14.8-8.31l-26.9,23.43,6.29,15.73-21.16,18.43-29.71-81.78,31.03-27.03,77.1,40.5-21.84,19.02ZM2522.9,413.36c-7.28-4.04-14.61-8.03-22-11.98l-6.8-3.72c2.49,6.83,6.33,17.08,11.51,30.75l17.28-15.06Z"/>
      <path class="cls-3" d="M2619.64,323.46c.55,5.45-1.41,11.46-5.88,18.02,1.46.31,2.55.6,3.27.86l30.18,7.07-22.93,19.98c-6.49-2.45-16.07-5.57-28.76-9.35l-12.39,10.8,17.04,19.56-19.9,17.33c-9.05-11.3-17.71-21.69-25.99-31.19s-17.39-19.5-27.34-30.02l19.9-17.33.07.08,17.28-15.06c11.35-9.89,20.87-14.97,28.55-15.23,7.68-.26,14.24,2.72,19.67,8.96,4.26,4.89,6.66,10.06,7.21,15.52ZM2561.03,345.45l8.37,9.61,11.38-9.91c4.78-4.16,8.26-7.46,10.43-9.9,2.18-2.44,3.45-4.41,3.82-5.92.37-1.51-.01-2.91-1.14-4.2s-2.36-1.8-3.85-1.69c-1.49.11-3.59,1.1-6.31,2.97-2.72,1.87-6.49,4.92-11.33,9.13l-11.38,9.91Z"/>
      <path class="cls-3" d="M2672.22,220.12c7.88,9.84,16.55,20.19,26,31.04,9.5,10.91,18.58,20.94,27.25,30.09l-30.18,26.29-60.51-28.26,41.62,44.71-21.67,18.88c-9.05-11.3-17.71-21.69-25.99-31.19s-17.31-19.42-27.26-29.93l31.03-27.03,61.69,29.45-42.64-46.05,20.66-17.99Z"/>
      <path class="cls-3" d="M2742.49,188.27c-6.98,5.49-12.1,9.6-15.35,12.34l25.12,28.84c3.21-2.89,7.99-7.4,14.33-13.52l14.62,16.78-48.99,42.67-14.62-16.78c6.76-5.29,11.85-9.38,15.27-12.26l-25.12-28.84c-3.32,2.99-8.07,7.48-14.24,13.44l-14.62-16.78,48.99-42.67,14.62,16.78Z"/>
      <path class="cls-3" d="M2805.43,104.08c7.88,9.84,16.55,20.19,26,31.04s18.58,20.94,27.25,30.09l-30.18,26.29-60.51-28.26,41.62,44.71-21.67,18.88c-9.05-11.3-17.71-21.69-25.99-31.19s-17.31-19.42-27.26-29.93l31.03-27.03,61.69,29.45-42.64-46.05,20.66-17.99Z"/>
      <path class="cls-3" d="M2869.76,94.17l36-31.36,30.41,34.91-14.84,12.93-14.77-13.38c2.97,6.81,3.41,13.39,1.33,19.75-2.08,6.36-6.23,12.25-12.47,17.69-5.68,4.95-11.82,8.08-18.44,9.39-6.62,1.31-13.23.7-19.84-1.84-6.61-2.54-12.66-6.96-18.15-13.26-8.76-10.06-12.69-20.63-11.76-31.72.92-11.08,7.73-22.16,20.44-33.23,7.25-6.32,14.67-10.71,22.27-13.17,7.59-2.46,15.48-2.91,23.67-1.34-1.4,3.5-4.1,10.39-8.08,20.68l-1.08,3.02c-4.1-.28-8.09.3-11.97,1.75-3.88,1.45-7.45,3.6-10.71,6.43-5.4,4.7-8.18,9.62-8.35,14.76-.17,5.14,1.56,9.79,5.18,13.95,3.92,4.5,8.49,6.89,13.73,7.17,5.24.28,10.78-2.12,16.63-7.22,2.53-2.2,4.67-4.71,6.42-7.52,1.75-2.81,2.66-5.83,2.72-9.05l-16.44,14.32-11.9-13.66Z"/>
    </g>
    <rect class="cls-3" x="-1281.66" y="849.65" width="6347" height="14.16" transform="translate(-97.41 1453.33) rotate(-41.06)"/>
    <rect class="cls-3" x="-1189.37" y="955.6" width="6347" height="14.16" transform="translate(-144.3 1540.01) rotate(-41.06)"/>
  </g>
  <g>
    <rect class="cls-2" x="865.84" y="4668.58" width="6347" height="166.76" transform="translate(-2127.7 3821.93) rotate(-41.06)"/>
    <g>
      <path class="cls-3" d="M3156.2,5535.41l-28.89-42.01,20.57-17.92,42.02,71.05-25.88,22.55-35.48-29.15,23.08,39.95-24.79,21.59-64.62-51.37,20.57-17.92,37.13,33.94-26.08-43.56,22.51-19.61,39.85,32.47Z"/>
      <path class="cls-3" d="M3254.41,5490.34c-3.86-2.27-8.79-5.04-14.8-8.31l-26.9,23.43,6.29,15.73-21.16,18.43-29.71-81.78,31.03-27.03,77.1,40.5-21.84,19.02ZM3223.34,5473.06c-7.28-4.04-14.61-8.03-22-11.98l-6.8-3.72c2.49,6.83,6.33,17.08,11.51,30.75l17.28-15.06Z"/>
      <path class="cls-3" d="M3320.08,5383.16c.55,5.45-1.41,11.46-5.88,18.02,1.46.31,2.55.6,3.27.86l30.18,7.07-22.93,19.98c-6.49-2.45-16.07-5.57-28.76-9.35l-12.39,10.8,17.04,19.56-19.9,17.33c-9.05-11.3-17.71-21.69-25.99-31.19-8.27-9.5-17.39-19.5-27.34-30.02l19.9-17.33.07.08,17.28-15.06c11.35-9.89,20.87-14.97,28.55-15.23,7.68-.26,14.24,2.72,19.67,8.96,4.26,4.89,6.66,10.06,7.21,15.52ZM3261.46,5405.15l8.37,9.61,11.38-9.91c4.78-4.16,8.26-7.46,10.43-9.9,2.18-2.44,3.45-4.41,3.82-5.92.37-1.51-.01-2.91-1.14-4.2s-2.36-1.8-3.85-1.69c-1.49.11-3.59,1.1-6.31,2.97-2.72,1.87-6.49,4.92-11.33,9.13l-11.38,9.91Z"/>
      <path class="cls-3" d="M3372.66,5279.83c7.88,9.84,16.55,20.19,26,31.04,9.5,10.91,18.58,20.94,27.25,30.09l-30.18,26.29-60.51-28.26,41.62,44.71-21.67,18.88c-9.05-11.3-17.71-21.69-25.99-31.19s-17.31-19.42-27.26-29.93l31.03-27.03,61.69,29.45-42.64-46.05,20.66-17.99Z"/>
      <path class="cls-3" d="M3442.93,5247.97c-6.98,5.49-12.1,9.6-15.35,12.34l25.12,28.84c3.21-2.89,7.99-7.4,14.33-13.52l14.62,16.78-48.99,42.67-14.62-16.78c6.76-5.29,11.85-9.38,15.27-12.26l-25.12-28.84c-3.32,2.99-8.07,7.48-14.24,13.44l-14.62-16.78,48.99-42.67,14.62,16.78Z"/>
      <path class="cls-3" d="M3505.87,5163.78c7.88,9.84,16.55,20.19,26,31.04s18.58,20.94,27.25,30.09l-30.18,26.29-60.51-28.26,41.62,44.71-21.67,18.88c-9.05-11.3-17.71-21.69-25.99-31.19-8.23-9.44-17.31-19.42-27.26-29.93l31.03-27.03,61.69,29.45-42.64-46.05,20.66-17.99Z"/>
      <path class="cls-3" d="M3570.2,5153.87l36-31.36,30.41,34.91-14.84,12.93-14.77-13.38c2.97,6.81,3.41,13.39,1.33,19.75-2.08,6.36-6.23,12.25-12.47,17.69-5.68,4.95-11.82,8.08-18.44,9.39-6.62,1.31-13.23.7-19.84-1.84-6.61-2.54-12.66-6.96-18.15-13.26-8.76-10.06-12.69-20.63-11.76-31.72.92-11.08,7.73-22.16,20.44-33.23,7.25-6.32,14.67-10.71,22.27-13.17,7.59-2.46,15.48-2.91,23.67-1.34-1.4,3.5-4.1,10.39-8.08,20.68l-1.08,3.02c-4.1-.28-8.09.3-11.97,1.75-3.88,1.45-7.45,3.6-10.71,6.43-5.4,4.7-8.18,9.62-8.35,14.76-.17,5.14,1.56,9.79,5.18,13.95,3.92,4.5,8.49,6.89,13.73,7.17,5.24.28,10.78-2.12,16.63-7.22,2.53-2.2,4.67-4.71,6.42-7.52,1.75-2.81,2.66-5.83,2.72-9.05l-16.44,14.32-11.9-13.66Z"/>
    </g>
    <g>
      <path class="cls-3" d="M3855.95,4925.87l-28.89-42.01,20.57-17.92,42.02,71.05-25.88,22.55-35.48-29.15,23.08,39.95-24.79,21.59-64.62-51.37,20.57-17.92,37.13,33.94-26.08-43.56,22.51-19.61,39.85,32.47Z"/>
      <path class="cls-3" d="M3954.16,4880.8c-3.86-2.27-8.79-5.04-14.8-8.31l-26.9,23.43,6.29,15.73-21.16,18.43-29.71-81.78,31.03-27.03,77.1,40.5-21.84,19.02ZM3923.09,4863.53c-7.28-4.04-14.61-8.03-22-11.98l-6.8-3.72c2.49,6.83,6.33,17.08,11.51,30.75l17.28-15.06Z"/>
      <path class="cls-3" d="M4019.83,4773.62c.55,5.45-1.41,11.46-5.88,18.02,1.46.31,2.55.6,3.27.86l30.18,7.07-22.93,19.98c-6.49-2.45-16.07-5.57-28.76-9.35l-12.39,10.8,17.04,19.56-19.9,17.33c-9.05-11.3-17.71-21.69-25.99-31.19s-17.39-19.5-27.34-30.02l19.9-17.33.07.08,17.28-15.06c11.35-9.89,20.87-14.97,28.55-15.23,7.68-.26,14.24,2.72,19.67,8.96,4.26,4.89,6.66,10.06,7.21,15.52ZM3961.22,4795.62l8.37,9.61,11.38-9.91c4.78-4.16,8.26-7.46,10.43-9.9,2.18-2.44,3.45-4.41,3.82-5.92.37-1.51-.01-2.91-1.14-4.2s-2.36-1.8-3.85-1.69c-1.49.11-3.59,1.1-6.31,2.97-2.72,1.87-6.49,4.92-11.33,9.13l-11.38,9.91Z"/>
      <path class="cls-3" d="M4072.41,4670.29c7.88,9.84,16.55,20.19,26,31.04,9.5,10.91,18.58,20.94,27.25,30.09l-30.18,26.29-60.51-28.26,41.62,44.71-21.67,18.88c-9.05-11.3-17.71-21.69-25.99-31.19-8.23-9.44-17.31-19.42-27.26-29.93l31.03-27.03,61.69,29.45-42.64-46.05,20.66-17.99Z"/>
      <path class="cls-3" d="M4142.68,4638.44c-6.98,5.49-12.1,9.6-15.35,12.34l25.12,28.84c3.21-2.89,7.99-7.4,14.33-13.52l14.62,16.78-48.99,42.67-14.62-16.78c6.76-5.29,11.85-9.38,15.27-12.26l-25.12-28.84c-3.32,2.99-8.07,7.48-14.24,13.44l-14.62-16.78,48.99-42.67,14.62,16.78Z"/>
      <path class="cls-3" d="M4205.62,4554.25c7.88,9.84,16.55,20.19,26,31.04,9.5,10.91,18.58,20.94,27.25,30.09l-30.18,26.29-60.51-28.26,41.62,44.71-21.67,18.88c-9.05-11.3-17.71-21.69-25.99-31.19s-17.31-19.42-27.26-29.93l31.03-27.03,61.69,29.45-42.64-46.05,20.66-17.99Z"/>
      <path class="cls-3" d="M4269.95,4544.34l36-31.36,30.41,34.91-14.84,12.93-14.77-13.38c2.97,6.81,3.41,13.39,1.33,19.75-2.08,6.36-6.23,12.25-12.47,17.69-5.68,4.95-11.82,8.08-18.44,9.39-6.62,1.31-13.23.7-19.84-1.84-6.61-2.54-12.66-6.96-18.15-13.26-8.76-10.06-12.69-20.63-11.76-31.72.92-11.08,7.73-22.16,20.44-33.23,7.25-6.32,14.67-10.71,22.27-13.17,7.59-2.46,15.48-2.91,23.67-1.34-1.4,3.5-4.1,10.39-8.08,20.68l-1.08,3.02c-4.1-.28-8.09.3-11.97,1.75-3.88,1.45-7.45,3.6-10.71,6.43-5.4,4.7-8.18,9.62-8.35,14.76-.17,5.14,1.56,9.79,5.18,13.95,3.92,4.5,8.49,6.89,13.73,7.17,5.24.28,10.78-2.12,16.63-7.22,2.53-2.2,4.67-4.71,6.42-7.52,1.75-2.81,2.66-5.83,2.72-9.05l-16.44,14.32-11.9-13.66Z"/>
    </g>
    <g>
      <path class="cls-3" d="M4555.7,4316.34l-28.89-42.01,20.57-17.92,42.02,71.05-25.88,22.55-35.48-29.15,23.08,39.95-24.79,21.59-64.62-51.37,20.57-17.92,37.13,33.94-26.08-43.56,22.51-19.61,39.85,32.47Z"/>
      <path class="cls-3" d="M4653.91,4271.27c-3.86-2.27-8.79-5.04-14.8-8.31l-26.9,23.43,6.29,15.73-21.16,18.43-29.71-81.78,31.03-27.03,77.1,40.5-21.84,19.02ZM4622.84,4253.99c-7.28-4.04-14.61-8.03-22-11.98l-6.8-3.72c2.49,6.83,6.33,17.08,11.51,30.75l17.28-15.06Z"/>
      <path class="cls-3" d="M4719.58,4164.09c.55,5.45-1.41,11.46-5.88,18.02,1.46.31,2.55.6,3.27.86l30.18,7.07-22.93,19.98c-6.49-2.45-16.07-5.57-28.76-9.35l-12.39,10.8,17.04,19.56-19.9,17.33c-9.05-11.3-17.71-21.69-25.99-31.19-8.27-9.5-17.39-19.5-27.34-30.02l19.9-17.33.07.08,17.28-15.06c11.35-9.89,20.87-14.97,28.55-15.23,7.68-.26,14.24,2.72,19.67,8.96,4.26,4.89,6.66,10.06,7.21,15.52ZM4660.97,4186.08l8.37,9.61,11.38-9.91c4.78-4.16,8.26-7.46,10.43-9.9,2.18-2.44,3.45-4.41,3.82-5.92.37-1.51-.01-2.91-1.14-4.2s-2.36-1.8-3.85-1.69c-1.49.11-3.59,1.1-6.31,2.97-2.72,1.87-6.49,4.92-11.33,9.13l-11.38,9.91Z"/>
      <path class="cls-3" d="M4772.16,4060.76c7.88,9.84,16.55,20.19,26,31.04,9.5,10.91,18.58,20.94,27.25,30.09l-30.18,26.29-60.51-28.26,41.62,44.71-21.67,18.88c-9.05-11.3-17.71-21.69-25.99-31.19-8.23-9.44-17.31-19.42-27.26-29.93l31.03-27.03,61.69,29.45-42.64-46.05,20.66-17.99Z"/>
      <path class="cls-3" d="M4842.43,4028.9c-6.98,5.49-12.1,9.6-15.35,12.34l25.12,28.84c3.21-2.89,7.99-7.4,14.33-13.52l14.62,16.78-48.99,42.67-14.62-16.78c6.76-5.29,11.85-9.38,15.27-12.26l-25.12-28.84c-3.32,2.99-8.07,7.48-14.24,13.44l-14.62-16.78,48.99-42.67,14.62,16.78Z"/>
      <path class="cls-3" d="M4905.37,3944.71c7.88,9.84,16.55,20.19,26,31.04s18.58,20.94,27.25,30.09l-30.18,26.29-60.51-28.26,41.62,44.71-21.67,18.88c-9.05-11.3-17.71-21.69-25.99-31.19s-17.31-19.42-27.26-29.93l31.03-27.03,61.69,29.45-42.64-46.05,20.66-17.99Z"/>
      <path class="cls-3" d="M4969.7,3934.8l36-31.36,30.41,34.91-14.84,12.93-14.77-13.38c2.97,6.81,3.41,13.39,1.33,19.75-2.08,6.36-6.23,12.25-12.47,17.69-5.68,4.95-11.82,8.08-18.44,9.39-6.62,1.31-13.23.7-19.84-1.84-6.61-2.54-12.66-6.96-18.15-13.26-8.76-10.06-12.69-20.63-11.76-31.72.92-11.08,7.73-22.16,20.44-33.23,7.25-6.32,14.67-10.71,22.27-13.17,7.59-2.46,15.48-2.91,23.67-1.34-1.4,3.5-4.1,10.39-8.08,20.68l-1.08,3.02c-4.1-.28-8.09.3-11.97,1.75-3.88,1.45-7.45,3.6-10.71,6.43-5.4,4.7-8.18,9.62-8.35,14.76-.17,5.14,1.56,9.79,5.18,13.95,3.92,4.5,8.49,6.89,13.73,7.17,5.24.28,10.78-2.12,16.63-7.22,2.53-2.2,4.67-4.71,6.42-7.52,1.75-2.81,2.66-5.83,2.72-9.05l-16.44,14.32-11.9-13.66Z"/>
    </g>
    <g>
      <path class="cls-3" d="M5255.45,3706.8l-28.89-42.01,20.57-17.92,42.02,71.05-25.88,22.55-35.48-29.15,23.08,39.95-24.79,21.59-64.62-51.37,20.57-17.92,37.13,33.94-26.08-43.56,22.51-19.61,39.85,32.47Z"/>
      <path class="cls-3" d="M5353.66,3661.73c-3.86-2.27-8.79-5.04-14.8-8.31l-26.9,23.43,6.29,15.73-21.16,18.43-29.71-81.78,31.03-27.03,77.1,40.5-21.84,19.02ZM5322.59,3644.46c-7.28-4.04-14.61-8.03-22-11.98l-6.8-3.72c2.49,6.83,6.33,17.08,11.51,30.75l17.28-15.06Z"/>
      <path class="cls-3" d="M5419.34,3554.55c.55,5.45-1.41,11.46-5.88,18.02,1.46.31,2.55.6,3.27.86l30.18,7.07-22.93,19.98c-6.49-2.45-16.07-5.57-28.76-9.35l-12.39,10.8,17.04,19.56-19.9,17.33c-9.05-11.3-17.71-21.69-25.99-31.19s-17.39-19.5-27.34-30.02l19.9-17.33.07.08,17.28-15.06c11.35-9.89,20.87-14.97,28.55-15.23,7.68-.26,14.24,2.72,19.67,8.96,4.26,4.89,6.66,10.06,7.21,15.52ZM5360.72,3576.55l8.37,9.61,11.38-9.91c4.78-4.16,8.26-7.46,10.43-9.9,2.18-2.44,3.45-4.41,3.82-5.92.37-1.51-.01-2.91-1.14-4.2s-2.36-1.8-3.85-1.69c-1.49.11-3.59,1.1-6.31,2.97-2.72,1.87-6.49,4.92-11.33,9.13l-11.38,9.91Z"/>
      <path class="cls-3" d="M5471.91,3451.22c7.88,9.84,16.55,20.19,26,31.04s18.58,20.94,27.25,30.09l-30.18,26.29-60.51-28.26,41.62,44.71-21.67,18.88c-9.05-11.3-17.71-21.69-25.99-31.19-8.23-9.44-17.31-19.42-27.26-29.93l31.03-27.03,61.69,29.45-42.64-46.05,20.66-17.99Z"/>
    </g>
    <rect class="cls-3" x="818.28" y="4690.28" width="6347" height="14.16" transform="translate(-2103.54 3777.26) rotate(-41.06)"/>
    <rect class="cls-3" x="910.57" y="4796.23" width="6347" height="14.16" transform="translate(-2150.43 3863.94) rotate(-41.06)"/>
  </g>
  <g>
    <rect class="cls-2" x="-291.18" y="4156.33" width="6347" height="166.76" transform="translate(489.81 -294.47) rotate(6.39)"/>
    <g>
      <path class="cls-3" d="M86.46,3930.12c-3.65,4.09-9.4,6.71-17.25,7.86.76,1.29,1.28,2.28,1.58,2.99l15.2,27.02-30.23-3.39c-2.58-6.44-6.77-15.61-12.56-27.51l-16.34-1.83-2.89,25.78-26.23-2.94c2.2-14.31,4-27.72,5.41-40.24,1.4-12.52,2.61-26,3.63-40.44l26.23,2.94v.11s22.77,2.55,22.77,2.55c14.96,1.68,25.14,5.25,30.53,10.73,5.39,5.48,7.62,12.33,6.7,20.55-.72,6.45-2.91,11.71-6.55,15.81ZM30.62,3901.82l-1.42,12.67,15,1.68c6.3.71,11.08,1.04,14.35.99,3.27-.05,5.58-.44,6.94-1.19,1.36-.75,2.13-1.97,2.32-3.68s-.27-2.96-1.35-3.98c-1.09-1.02-3.24-1.9-6.46-2.64-3.22-.73-8.01-1.46-14.38-2.17l-15-1.68Z"/>
      <path class="cls-3" d="M198.14,3898.97c-1.92,12.46-3.68,25.84-5.28,40.14-1.61,14.37-2.86,27.85-3.74,40.42l-39.78-4.46-20.1-63.69-4.8,60.9-28.56-3.2c2.2-14.31,4-27.72,5.41-40.24,1.39-12.45,2.6-25.89,3.62-40.33l40.89,4.58,20.02,65.36,5.09-62.55,27.23,3.05Z"/>
      <path class="cls-3" d="M269.12,3929.2c-8.77-1.43-15.26-2.42-19.47-2.97l-4.26,38c4.3.41,10.85.88,19.64,1.41l-2.48,22.11-64.56-7.23,2.48-22.11c8.47,1.4,14.92,2.39,19.36,2.96l4.26-38c-4.45-.42-10.97-.89-19.53-1.4l2.48-22.11,64.56,7.23-2.48,22.11Z"/>
      <path class="cls-3" d="M373.71,3918.64c-1.92,12.46-3.68,25.84-5.28,40.14-1.61,14.37-2.86,27.85-3.74,40.42l-39.78-4.46-20.1-63.69-4.8,60.9-28.56-3.2c2.2-14.31,4-27.72,5.41-40.24,1.39-12.45,2.6-25.89,3.62-40.33l40.89,4.58,20.02,65.36,5.09-62.55,27.23,3.05Z"/>
      <path class="cls-3" d="M424.51,3959.32l47.45,5.31-5.15,46-19.56-2.19-.13-19.93c-3.01,6.79-7.56,11.57-13.65,14.34-6.09,2.77-13.24,3.69-21.46,2.77-7.48-.84-13.94-3.25-19.39-7.23-5.44-3.99-9.46-9.27-12.06-15.87-2.6-6.59-3.44-14.04-2.51-22.33,1.49-13.26,6.62-23.3,15.41-30.12,8.79-6.82,21.56-9.29,38.3-7.41,9.56,1.07,17.81,3.57,24.76,7.5,6.95,3.93,12.61,9.44,17,16.53-3.52,1.33-10.43,4.01-20.7,8.03l-2.95,1.24c-2.57-3.21-5.69-5.76-9.38-7.63-3.69-1.88-7.69-3.06-11.98-3.54-7.11-.8-12.62.48-16.52,3.83-3.9,3.35-6.16,7.77-6.77,13.25-.66,5.93.67,10.92,4.01,14.96,3.33,4.05,8.85,6.5,16.56,7.37,3.33.37,6.63.26,9.88-.36,3.26-.61,6.09-1.98,8.51-4.11l-21.67-2.43,2.02-18Z"/>
    </g>
    <g>
      <path class="cls-3" d="M785.71,4015.64l11.42-49.69,27.11,3.04-23.93,79.01-34.11-3.82-2.52-45.85-13.82,44.02-32.67-3.66-5.85-82.34,27.11,3.04.1,50.31,14.45-48.68,29.67,3.32,3.03,51.31Z"/>
      <path class="cls-3" d="M885.33,4057.51c-.94-4.38-2.23-9.89-3.89-16.53l-35.45-3.97-7.34,15.27-27.89-3.12,40.15-77.19,40.89,4.58,22.3,84.18-28.78-3.22ZM877.05,4022.94c-1.94-8.09-3.96-16.2-6.05-24.31l-1.86-7.52c-3.35,6.45-8.3,16.21-14.87,29.28l22.78,2.55Z"/>
      <path class="cls-3" d="M1008.7,4033.41c-3.65,4.09-9.4,6.71-17.25,7.86.76,1.29,1.28,2.28,1.58,2.99l15.2,27.02-30.23-3.39c-2.58-6.44-6.77-15.61-12.56-27.51l-16.34-1.83-2.89,25.78-26.23-2.94c2.2-14.31,4-27.72,5.41-40.24,1.4-12.52,2.61-26,3.63-40.44l26.23,2.94v.11s22.77,2.55,22.77,2.55c14.96,1.68,25.14,5.25,30.53,10.73,5.39,5.48,7.62,12.33,6.7,20.55-.72,6.45-2.91,11.71-6.55,15.81ZM952.85,4005.11l-1.42,12.67,15,1.68c6.3.71,11.08,1.04,14.35.99,3.27-.05,5.58-.44,6.94-1.19,1.36-.75,2.13-1.97,2.32-3.68s-.27-2.96-1.35-3.98c-1.09-1.02-3.24-1.9-6.46-2.64-3.22-.73-8.01-1.46-14.38-2.17l-15-1.68Z"/>
      <path class="cls-3" d="M1120.37,4002.26c-1.92,12.46-3.68,25.84-5.28,40.14-1.61,14.37-2.86,27.85-3.74,40.42l-39.78-4.46-20.1-63.69-4.8,60.9-28.56-3.2c2.2-14.31,4-27.72,5.41-40.24,1.39-12.45,2.6-25.89,3.62-40.33l40.89,4.58,20.02,65.36,5.09-62.55,27.23,3.05Z"/>
      <path class="cls-3" d="M1191.36,4032.49c-8.77-1.43-15.26-2.42-19.47-2.97l-4.26,38c4.3.41,10.85.88,19.64,1.41l-2.48,22.11-64.56-7.23,2.48-22.11c8.47,1.4,14.92,2.39,19.36,2.96l4.26-38c-4.45-.42-10.97-.89-19.53-1.4l2.48-22.11,64.56,7.23-2.48,22.11Z"/>
      <path class="cls-3" d="M1295.94,4021.93c-1.92,12.46-3.68,25.84-5.28,40.14-1.61,14.37-2.86,27.85-3.74,40.42l-39.78-4.46-20.1-63.69-4.8,60.9-28.56-3.2c2.2-14.31,4-27.72,5.41-40.24s2.6-25.89,3.62-40.33l40.89,4.58,20.02,65.36,5.09-62.55,27.23,3.05Z"/>
      <path class="cls-3" d="M1346.75,4062.61l47.45,5.31-5.15,46-19.56-2.19-.13-19.93c-3.01,6.79-7.56,11.57-13.65,14.34-6.09,2.77-13.24,3.69-21.46,2.77-7.48-.84-13.94-3.25-19.39-7.23-5.44-3.99-9.46-9.27-12.06-15.87-2.6-6.59-3.44-14.04-2.51-22.33,1.49-13.26,6.62-23.3,15.41-30.12,8.79-6.82,21.56-9.29,38.3-7.41,9.56,1.07,17.81,3.57,24.76,7.5,6.95,3.93,12.61,9.44,17,16.53-3.52,1.33-10.43,4.01-20.7,8.03l-2.95,1.24c-2.57-3.21-5.69-5.76-9.38-7.63-3.69-1.88-7.69-3.06-11.98-3.54-7.11-.8-12.62.48-16.52,3.83-3.9,3.35-6.16,7.77-6.77,13.25-.66,5.93.67,10.92,4.01,14.96,3.33,4.05,8.85,6.5,16.56,7.37,3.33.37,6.63.26,9.88-.36,3.26-.61,6.09-1.98,8.51-4.11l-21.67-2.43,2.02-18Z"/>
    </g>
    <g>
      <path class="cls-3" d="M1707.94,4118.93l11.42-49.69,27.11,3.04-23.93,79.01-34.11-3.82-2.52-45.85-13.82,44.02-32.67-3.66-5.85-82.34,27.11,3.04.1,50.31,14.45-48.68,29.67,3.32,3.03,51.31Z"/>
      <path class="cls-3" d="M1807.56,4160.8c-.94-4.38-2.23-9.89-3.89-16.53l-35.45-3.97-7.34,15.27-27.89-3.12,40.15-77.19,40.89,4.58,22.3,84.18-28.78-3.22ZM1799.28,4126.23c-1.94-8.09-3.96-16.2-6.05-24.31l-1.86-7.52c-3.35,6.45-8.3,16.21-14.87,29.28l22.78,2.55Z"/>
      <path class="cls-3" d="M1930.93,4136.7c-3.65,4.09-9.4,6.71-17.25,7.86.76,1.29,1.28,2.28,1.58,2.99l15.2,27.02-30.23-3.39c-2.58-6.44-6.77-15.61-12.56-27.51l-16.34-1.83-2.89,25.78-26.23-2.94c2.2-14.31,4-27.72,5.41-40.24,1.4-12.52,2.61-26,3.63-40.44l26.23,2.94v.11s22.77,2.55,22.77,2.55c14.96,1.68,25.14,5.25,30.53,10.73,5.39,5.48,7.62,12.33,6.7,20.55-.72,6.45-2.91,11.71-6.55,15.81ZM1875.09,4108.4l-1.42,12.67,15,1.68c6.3.71,11.08,1.04,14.35.99,3.27-.05,5.58-.44,6.94-1.19,1.36-.75,2.13-1.97,2.32-3.68s-.27-2.96-1.35-3.98c-1.09-1.02-3.24-1.9-6.46-2.64-3.22-.73-8.01-1.46-14.38-2.17l-15-1.68Z"/>
      <path class="cls-3" d="M2042.61,4105.55c-1.92,12.46-3.68,25.84-5.28,40.14-1.61,14.37-2.86,27.85-3.74,40.42l-39.78-4.46-20.1-63.69-4.8,60.9-28.56-3.2c2.2-14.31,4-27.72,5.41-40.24,1.39-12.45,2.6-25.89,3.62-40.33l40.89,4.58,20.02,65.36,5.09-62.55,27.23,3.05Z"/>
      <path class="cls-3" d="M2113.59,4135.78c-8.77-1.43-15.26-2.42-19.47-2.97l-4.26,38c4.3.41,10.85.88,19.64,1.41l-2.48,22.11-64.56-7.23,2.48-22.11c8.47,1.4,14.92,2.39,19.36,2.96l4.26-38c-4.45-.42-10.97-.89-19.53-1.4l2.48-22.11,64.56,7.23-2.48,22.11Z"/>
      <path class="cls-3" d="M2218.18,4125.22c-1.92,12.46-3.68,25.84-5.28,40.14-1.61,14.37-2.86,27.85-3.74,40.42l-39.78-4.46-20.1-63.69-4.8,60.9-28.56-3.2c2.2-14.31,4-27.72,5.41-40.24,1.39-12.45,2.6-25.89,3.62-40.33l40.89,4.58,20.02,65.36,5.09-62.55,27.23,3.05Z"/>
      <path class="cls-3" d="M2268.98,4165.9l47.45,5.31-5.15,46-19.56-2.19-.13-19.93c-3.01,6.79-7.56,11.57-13.65,14.34-6.09,2.77-13.24,3.69-21.46,2.77-7.48-.84-13.94-3.25-19.39-7.23-5.44-3.99-9.46-9.27-12.06-15.87-2.6-6.59-3.44-14.04-2.51-22.33,1.49-13.26,6.62-23.3,15.41-30.12,8.79-6.82,21.56-9.29,38.3-7.41,9.56,1.07,17.81,3.57,24.76,7.5,6.95,3.93,12.61,9.44,17,16.53-3.52,1.33-10.43,4.01-20.7,8.03l-2.95,1.24c-2.57-3.21-5.69-5.76-9.38-7.63-3.69-1.88-7.69-3.06-11.98-3.54-7.11-.8-12.62.48-16.52,3.83-3.9,3.35-6.16,7.77-6.77,13.25-.66,5.93.67,10.92,4.01,14.96,3.33,4.05,8.85,6.5,16.56,7.37,3.33.37,6.63.26,9.88-.36,3.26-.61,6.09-1.98,8.51-4.11l-21.67-2.43,2.02-18Z"/>
    </g>
    <g>
      <path class="cls-3" d="M2630.18,4222.22l11.42-49.69,27.11,3.04-23.93,79.01-34.11-3.82-2.52-45.85-13.82,44.02-32.67-3.66-5.85-82.34,27.11,3.04.1,50.31,14.45-48.68,29.67,3.32,3.03,51.31Z"/>
      <path class="cls-3" d="M2729.79,4264.09c-.94-4.38-2.23-9.89-3.89-16.53l-35.45-3.97-7.34,15.27-27.89-3.12,40.15-77.19,40.89,4.58,22.3,84.18-28.78-3.22ZM2721.51,4229.52c-1.94-8.09-3.96-16.2-6.05-24.31l-1.86-7.52c-3.35,6.45-8.3,16.21-14.87,29.28l22.78,2.55Z"/>
      <path class="cls-3" d="M2853.17,4239.99c-3.65,4.09-9.4,6.71-17.25,7.86.76,1.29,1.28,2.28,1.58,2.99l15.2,27.02-30.23-3.39c-2.58-6.44-6.77-15.61-12.56-27.51l-16.34-1.83-2.89,25.78-26.23-2.94c2.2-14.31,4-27.72,5.41-40.24,1.4-12.52,2.61-26,3.63-40.44l26.23,2.94v.11s22.77,2.55,22.77,2.55c14.96,1.68,25.14,5.25,30.53,10.73,5.39,5.48,7.62,12.33,6.7,20.55-.72,6.45-2.91,11.71-6.55,15.81ZM2797.32,4211.68l-1.42,12.67,15,1.68c6.3.71,11.08,1.04,14.35.99,3.27-.05,5.58-.44,6.94-1.19,1.36-.75,2.13-1.97,2.32-3.68s-.27-2.96-1.35-3.98c-1.09-1.02-3.24-1.9-6.46-2.64-3.22-.73-8.01-1.46-14.38-2.17l-15-1.68Z"/>
      <path class="cls-3" d="M2964.84,4208.84c-1.92,12.46-3.68,25.84-5.28,40.14-1.61,14.37-2.86,27.85-3.74,40.42l-39.78-4.46-20.1-63.69-4.8,60.9-28.56-3.2c2.2-14.31,4-27.72,5.41-40.24,1.39-12.45,2.6-25.89,3.62-40.33l40.89,4.58,20.02,65.36,5.09-62.55,27.23,3.05Z"/>
      <path class="cls-3" d="M3035.83,4239.07c-8.77-1.43-15.26-2.42-19.47-2.97l-4.26,38c4.3.41,10.85.88,19.64,1.41l-2.48,22.11-64.56-7.23,2.48-22.11c8.47,1.4,14.92,2.39,19.36,2.96l4.26-38c-4.45-.42-10.97-.89-19.53-1.4l2.48-22.11,64.56,7.23-2.48,22.11Z"/>
      <path class="cls-3" d="M3140.41,4228.51c-1.92,12.46-3.68,25.84-5.28,40.14s-2.86,27.85-3.74,40.42l-39.78-4.46-20.1-63.69-4.8,60.9-28.56-3.2c2.2-14.31,4-27.72,5.41-40.24,1.39-12.45,2.6-25.89,3.62-40.33l40.89,4.58,20.02,65.36,5.09-62.55,27.23,3.05Z"/>
      <path class="cls-3" d="M3191.21,4269.19l47.45,5.31-5.15,46-19.56-2.19-.13-19.93c-3.01,6.79-7.56,11.57-13.65,14.34-6.09,2.77-13.24,3.69-21.46,2.77-7.48-.84-13.94-3.25-19.39-7.23-5.44-3.99-9.46-9.27-12.06-15.87-2.6-6.59-3.44-14.04-2.51-22.33,1.49-13.26,6.62-23.3,15.41-30.12,8.79-6.82,21.56-9.29,38.3-7.41,9.56,1.07,17.81,3.57,24.76,7.5,6.95,3.93,12.61,9.44,17,16.53-3.52,1.33-10.43,4.01-20.7,8.03l-2.95,1.24c-2.57-3.21-5.69-5.76-9.38-7.63-3.69-1.88-7.69-3.06-11.98-3.54-7.11-.8-12.62.48-16.52,3.83-3.9,3.35-6.16,7.77-6.77,13.25-.66,5.93.67,10.92,4.01,14.96,3.33,4.05,8.85,6.5,16.56,7.37,3.33.37,6.63.26,9.88-.36,3.26-.61,6.09-1.98,8.51-4.11l-21.67-2.43,2.02-18Z"/>
    </g>
    <g>
      <path class="cls-3" d="M3552.41,4325.51l11.42-49.69,27.11,3.04-23.93,79.01-34.11-3.82-2.52-45.85-13.82,44.02-32.67-3.66-5.85-82.34,27.11,3.04.1,50.31,14.45-48.68,29.67,3.32,3.03,51.31Z"/>
      <path class="cls-3" d="M3652.03,4367.38c-.94-4.38-2.23-9.89-3.89-16.53l-35.45-3.97-7.34,15.27-27.89-3.12,40.15-77.19,40.89,4.58,22.3,84.18-28.78-3.22ZM3643.75,4332.81c-1.94-8.09-3.96-16.2-6.05-24.31l-1.86-7.52c-3.35,6.45-8.3,16.21-14.87,29.28l22.78,2.55Z"/>
      <path class="cls-3" d="M3775.4,4343.28c-3.65,4.09-9.4,6.71-17.25,7.86.76,1.29,1.28,2.28,1.58,2.99l15.2,27.02-30.23-3.39c-2.58-6.44-6.77-15.61-12.56-27.51l-16.34-1.83-2.89,25.78-26.23-2.94c2.2-14.31,4-27.72,5.41-40.24,1.4-12.52,2.61-26,3.63-40.44l26.23,2.94v.11s22.77,2.55,22.77,2.55c14.96,1.68,25.14,5.25,30.53,10.73,5.39,5.48,7.62,12.33,6.7,20.55-.72,6.45-2.91,11.71-6.55,15.81ZM3719.55,4314.97l-1.42,12.67,15,1.68c6.3.71,11.08,1.04,14.35.99,3.27-.05,5.58-.44,6.94-1.19,1.36-.75,2.13-1.97,2.32-3.68s-.27-2.96-1.35-3.98c-1.09-1.02-3.24-1.9-6.46-2.64-3.22-.73-8.01-1.46-14.38-2.17l-15-1.68Z"/>
      <path class="cls-3" d="M3887.07,4312.13c-1.92,12.46-3.68,25.84-5.28,40.14-1.61,14.37-2.86,27.85-3.74,40.42l-39.78-4.46-20.1-63.69-4.8,60.9-28.56-3.2c2.2-14.31,4-27.72,5.41-40.24s2.6-25.89,3.62-40.33l40.89,4.58,20.02,65.36,5.09-62.55,27.23,3.05Z"/>
      <path class="cls-3" d="M3958.06,4342.36c-8.77-1.43-15.26-2.42-19.47-2.97l-4.26,38c4.3.41,10.85.88,19.64,1.41l-2.48,22.11-64.56-7.23,2.48-22.11c8.47,1.4,14.92,2.39,19.36,2.96l4.26-38c-4.45-.42-10.97-.89-19.53-1.4l2.48-22.11,64.56,7.23-2.48,22.11Z"/>
      <path class="cls-3" d="M4062.65,4331.8c-1.92,12.46-3.68,25.84-5.28,40.14-1.61,14.37-2.86,27.85-3.74,40.42l-39.78-4.46-20.1-63.69-4.8,60.9-28.56-3.2c2.2-14.31,4-27.72,5.41-40.24,1.39-12.45,2.6-25.89,3.62-40.33l40.89,4.58,20.02,65.36,5.09-62.55,27.23,3.05Z"/>
      <path class="cls-3" d="M4113.45,4372.48l47.45,5.31-5.15,46-19.56-2.19-.13-19.93c-3.01,6.79-7.56,11.57-13.65,14.34-6.09,2.77-13.24,3.69-21.46,2.77-7.48-.84-13.94-3.25-19.39-7.23-5.44-3.99-9.46-9.27-12.06-15.87-2.6-6.59-3.44-14.04-2.51-22.33,1.49-13.26,6.62-23.3,15.41-30.12,8.79-6.82,21.56-9.29,38.3-7.41,9.56,1.07,17.81,3.57,24.76,7.5,6.95,3.93,12.61,9.44,17,16.53-3.52,1.33-10.43,4.01-20.7,8.03l-2.95,1.24c-2.57-3.21-5.69-5.76-9.38-7.63-3.69-1.88-7.69-3.06-11.98-3.54-7.11-.8-12.62.48-16.52,3.83-3.9,3.35-6.16,7.77-6.77,13.25-.66,5.93.67,10.92,4.01,14.96,3.33,4.05,8.85,6.5,16.56,7.37,3.33.37,6.63.26,9.88-.36,3.26-.61,6.09-1.98,8.51-4.11l-21.67-2.43,2.02-18Z"/>
    </g>
    <g>
      <path class="cls-3" d="M4474.65,4428.8l11.42-49.69,27.11,3.04-23.93,79.01-34.11-3.82-2.52-45.85-13.82,44.02-32.67-3.66-5.85-82.34,27.11,3.04.1,50.31,14.45-48.68,29.67,3.32,3.03,51.31Z"/>
      <path class="cls-3" d="M4574.26,4470.67c-.94-4.38-2.23-9.89-3.89-16.53l-35.45-3.97-7.34,15.27-27.89-3.12,40.15-77.19,40.89,4.58,22.3,84.18-28.78-3.22ZM4565.98,4436.1c-1.94-8.09-3.96-16.2-6.05-24.31l-1.86-7.52c-3.35,6.45-8.3,16.21-14.87,29.28l22.78,2.55Z"/>
      <path class="cls-3" d="M4697.63,4446.57c-3.65,4.09-9.4,6.71-17.25,7.86.76,1.29,1.28,2.28,1.58,2.99l15.2,27.02-30.23-3.39c-2.58-6.44-6.77-15.61-12.56-27.51l-16.34-1.83-2.89,25.78-26.23-2.94c2.2-14.31,4-27.72,5.41-40.24s2.61-26,3.63-40.44l26.23,2.94v.11s22.77,2.55,22.77,2.55c14.96,1.68,25.14,5.25,30.53,10.73,5.39,5.48,7.62,12.33,6.7,20.55-.72,6.45-2.91,11.71-6.55,15.81ZM4641.79,4418.26l-1.42,12.67,15,1.68c6.3.71,11.08,1.04,14.35.99,3.27-.05,5.58-.44,6.94-1.19,1.36-.75,2.13-1.97,2.32-3.68s-.27-2.96-1.35-3.98c-1.09-1.02-3.24-1.9-6.46-2.64-3.22-.73-8.01-1.46-14.38-2.17l-15-1.68Z"/>
      <path class="cls-3" d="M4809.31,4415.42c-1.92,12.46-3.68,25.84-5.28,40.14-1.61,14.37-2.86,27.85-3.74,40.42l-39.78-4.46-20.1-63.69-4.8,60.9-28.56-3.2c2.2-14.31,4-27.72,5.41-40.24,1.39-12.45,2.6-25.89,3.62-40.33l40.89,4.58,20.02,65.36,5.09-62.55,27.23,3.05Z"/>
      <path class="cls-3" d="M4880.29,4445.65c-8.77-1.43-15.26-2.42-19.47-2.97l-4.26,38c4.3.41,10.85.88,19.64,1.41l-2.48,22.11-64.56-7.23,2.48-22.11c8.47,1.4,14.92,2.39,19.36,2.96l4.26-38c-4.45-.42-10.97-.89-19.53-1.4l2.48-22.11,64.56,7.23-2.48,22.11Z"/>
      <path class="cls-3" d="M4984.88,4435.09c-1.92,12.46-3.68,25.84-5.28,40.14s-2.86,27.85-3.74,40.42l-39.78-4.46-20.1-63.69-4.8,60.9-28.56-3.2c2.2-14.31,4-27.72,5.41-40.24,1.39-12.45,2.6-25.89,3.62-40.33l40.89,4.58,20.02,65.36,5.09-62.55,27.23,3.05Z"/>
      <path class="cls-3" d="M5035.68,4475.77l47.45,5.31-5.15,46-19.56-2.19-.13-19.93c-3.01,6.79-7.56,11.57-13.65,14.34-6.09,2.77-13.24,3.69-21.46,2.77-7.48-.84-13.94-3.25-19.39-7.23-5.44-3.99-9.46-9.27-12.06-15.87-2.6-6.59-3.44-14.04-2.51-22.33,1.49-13.26,6.62-23.3,15.41-30.12,8.79-6.82,21.56-9.29,38.3-7.41,9.56,1.07,17.81,3.57,24.76,7.5,6.95,3.93,12.61,9.44,17,16.53-3.52,1.33-10.43,4.01-20.7,8.03l-2.95,1.24c-2.57-3.21-5.69-5.76-9.38-7.63-3.69-1.88-7.69-3.06-11.98-3.54-7.11-.8-12.62.48-16.52,3.83-3.9,3.35-6.16,7.77-6.77,13.25-.66,5.93.67,10.92,4.01,14.96,3.33,4.05,8.85,6.5,16.56,7.37,3.33.37,6.63.26,9.88-.36,3.26-.61,6.09-1.98,8.51-4.11l-21.67-2.43,2.02-18Z"/>
    </g>
    <g>
      <path class="cls-3" d="M5396.88,4532.09l11.42-49.69,27.11,3.04-23.93,79.01-34.11-3.82-2.52-45.85-13.82,44.02-32.67-3.66-5.85-82.34,27.11,3.04.1,50.31,14.45-48.68,29.67,3.32,3.03,51.31Z"/>
      <path class="cls-3" d="M5496.49,4573.96c-.94-4.38-2.23-9.89-3.89-16.53l-35.45-3.97-7.34,15.27-27.89-3.12,40.15-77.19,40.89,4.58,22.3,84.18-28.78-3.22ZM5488.21,4539.39c-1.94-8.09-3.96-16.2-6.05-24.31l-1.86-7.52c-3.35,6.45-8.3,16.21-14.87,29.28l22.78,2.55Z"/>
    </g>
    <rect class="cls-3" x="-283.12" y="4160.67" width="6347" height="14.16" transform="translate(481.85 -295.81) rotate(6.39)"/>
    <rect class="cls-3" x="-298.76" y="4300.31" width="6347" height="14.16" transform="translate(497.29 -293.2) rotate(6.39)"/>
  </g>
  <g>
    <rect class="cls-2" x="-452.24" y="1174.05" width="6347" height="166.76" transform="translate(-117.09 293) rotate(-6.03)"/>
    <g>
      <path class="cls-3" d="M26.63,1502.15c.8,12.58,1.96,26.03,3.48,40.34,1.52,14.38,3.2,27.81,5.04,40.28l-39.81,4.21-33.33-57.87,8.42,60.5-28.58,3.02c-.93-14.44-2.05-27.93-3.38-40.46-1.32-12.45-3.03-25.84-5.14-40.16l40.92-4.33,33.61,59.53-8.48-62.18,27.24-2.88Z"/>
      <path class="cls-3" d="M102.46,1516.4c-8.87.49-15.42.92-19.65,1.29l4.02,38.03c4.29-.53,10.79-1.48,19.49-2.85l2.34,22.13-64.61,6.83-2.34-22.13c8.57-.46,15.09-.88,19.54-1.28l-4.02-38.03c-4.44.54-10.9,1.49-19.38,2.84l-2.34-22.13,64.61-6.83,2.34,22.13Z"/>
      <path class="cls-3" d="M202.32,1483.58c.8,12.58,1.96,26.03,3.48,40.34,1.52,14.38,3.2,27.81,5.04,40.28l-39.81,4.21-33.33-57.87,8.42,60.5-28.58,3.02c-.93-14.44-2.05-27.93-3.38-40.46-1.32-12.45-3.03-25.84-5.14-40.16l40.92-4.33,33.61,59.53-8.48-62.18,27.24-2.88Z"/>
      <path class="cls-3" d="M260.69,1512.38l47.48-5.02,4.87,46.04-19.57,2.07-4.42-19.44c-1.48,7.28-4.89,12.92-10.24,16.94-5.35,4.01-12.14,6.45-20.36,7.32-7.49.79-14.32-.17-20.49-2.89-6.17-2.72-11.24-7.02-15.19-12.9-3.96-5.88-6.37-12.97-7.25-21.27-1.4-13.27,1.45-24.18,8.57-32.73,7.12-8.55,19.05-13.71,35.81-15.48,9.56-1.01,18.16-.35,25.79,2,7.63,2.34,14.35,6.51,20.15,12.49-3.16,2.06-9.32,6.16-18.49,12.3l-2.62,1.85c-3.2-2.59-6.8-4.4-10.81-5.44-4.01-1.04-8.16-1.33-12.46-.88-7.12.75-12.22,3.19-15.31,7.3-3.09,4.11-4.34,8.91-3.76,14.4.63,5.93,3,10.52,7.13,13.75,4.13,3.24,10.05,4.45,17.76,3.63,3.34-.35,6.53-1.18,9.58-2.47,3.05-1.3,5.52-3.24,7.42-5.84l-21.68,2.29-1.9-18.01Z"/>
    </g>
    <g>
      <path class="cls-3" d="M625.54,1489.67l.46-50.98,27.13-2.87-6.37,82.3-34.14,3.61-12.32-44.24-4.02,45.96-32.69,3.46-23.43-79.16,27.13-2.87,10.92,49.11,3.64-50.65,29.69-3.14,14,49.46Z"/>
      <path class="cls-3" d="M731.83,1509.14c-1.86-4.08-4.31-9.18-7.35-15.3l-35.47,3.75-3.88,16.49-27.91,2.95,22.6-84.02,40.92-4.33,39.89,77.42-28.8,3.04ZM716.31,1477.16c-3.64-7.49-7.35-14.96-11.14-22.44l-3.43-6.95c-1.88,7.02-4.62,17.62-8.22,31.79l22.8-2.41Z"/>
      <path class="cls-3" d="M847.13,1459.06c-2.68,4.78-7.73,8.58-15.16,11.38,1.02,1.09,1.74,1.95,2.18,2.58l20.66,23.12-30.25,3.2c-3.91-5.73-9.97-13.79-18.18-24.16l-16.35,1.73,2.73,25.8-26.24,2.77c-.93-14.44-2.05-27.93-3.38-40.46-1.32-12.53-3.04-25.95-5.16-40.27l26.24-2.77v.11s22.81-2.41,22.81-2.41c14.97-1.58,25.68-.28,32.12,3.91,6.44,4.19,10.09,10.4,10.96,18.63.68,6.45-.32,12.06-3,16.85ZM786.51,1443.43l1.34,12.68,15.01-1.59c6.3-.67,11.04-1.37,14.22-2.12,3.18-.75,5.35-1.63,6.52-2.66,1.17-1.02,1.66-2.39,1.48-4.09s-.9-2.83-2.18-3.59c-1.28-.76-3.57-1.16-6.87-1.19-3.3-.03-8.14.3-14.51.97l-15.01,1.59Z"/>
      <path class="cls-3" d="M949.49,1404.61c.8,12.58,1.96,26.03,3.48,40.34,1.52,14.38,3.2,27.81,5.04,40.28l-39.81,4.21-33.33-57.87,8.42,60.5-28.58,3.02c-.93-14.44-2.05-27.93-3.38-40.46s-3.03-25.84-5.14-40.16l40.92-4.33,33.61,59.53-8.48-62.18,27.24-2.88Z"/>
      <path class="cls-3" d="M1025.32,1418.86c-8.87.49-15.42.92-19.65,1.29l4.02,38.03c4.29-.53,10.79-1.48,19.49-2.85l2.34,22.13-64.61,6.83-2.34-22.13c8.57-.46,15.09-.88,19.54-1.28l-4.02-38.03c-4.44.54-10.9,1.49-19.38,2.84l-2.34-22.13,64.61-6.83,2.34,22.13Z"/>
      <path class="cls-3" d="M1125.18,1386.04c.8,12.58,1.96,26.03,3.48,40.34,1.52,14.38,3.2,27.81,5.04,40.28l-39.81,4.21-33.33-57.87,8.42,60.5-28.58,3.02c-.93-14.44-2.05-27.93-3.38-40.46s-3.03-25.84-5.14-40.16l40.92-4.33,33.61,59.53-8.48-62.18,27.24-2.88Z"/>
      <path class="cls-3" d="M1183.55,1414.84l47.48-5.02,4.87,46.04-19.57,2.07-4.42-19.44c-1.48,7.28-4.89,12.92-10.24,16.94-5.35,4.01-12.14,6.45-20.36,7.32-7.49.79-14.32-.17-20.49-2.89-6.17-2.72-11.24-7.02-15.19-12.9-3.96-5.88-6.37-12.97-7.25-21.27-1.4-13.27,1.45-24.18,8.57-32.73,7.12-8.55,19.05-13.71,35.81-15.48,9.56-1.01,18.16-.35,25.79,2,7.63,2.34,14.35,6.51,20.15,12.49-3.16,2.06-9.32,6.16-18.49,12.3l-2.62,1.85c-3.2-2.59-6.8-4.4-10.81-5.44-4.01-1.04-8.16-1.33-12.46-.88-7.12.75-12.22,3.19-15.31,7.3-3.09,4.11-4.34,8.91-3.76,14.4.63,5.93,3,10.52,7.13,13.75,4.13,3.24,10.05,4.45,17.76,3.63,3.34-.35,6.53-1.18,9.58-2.47,3.05-1.3,5.52-3.24,7.42-5.84l-21.68,2.29-1.9-18.01Z"/>
    </g>
    <g>
      <path class="cls-3" d="M1548.4,1392.13l.46-50.98,27.13-2.87-6.37,82.3-34.14,3.61-12.32-44.24-4.02,45.96-32.69,3.46-23.43-79.16,27.13-2.87,10.92,49.11,3.64-50.65,29.69-3.14,14,49.46Z"/>
      <path class="cls-3" d="M1654.69,1411.59c-1.86-4.08-4.31-9.18-7.35-15.3l-35.47,3.75-3.88,16.49-27.91,2.95,22.6-84.02,40.92-4.33,39.89,77.42-28.8,3.04ZM1639.17,1379.61c-3.64-7.49-7.35-14.96-11.14-22.44l-3.43-6.95c-1.88,7.02-4.62,17.62-8.22,31.79l22.8-2.41Z"/>
      <path class="cls-3" d="M1769.99,1361.51c-2.68,4.78-7.73,8.58-15.16,11.38,1.02,1.09,1.74,1.95,2.18,2.58l20.66,23.12-30.25,3.2c-3.91-5.73-9.97-13.79-18.18-24.16l-16.35,1.73,2.73,25.8-26.24,2.77c-.93-14.44-2.05-27.93-3.38-40.46s-3.04-25.95-5.16-40.27l26.24-2.77v.11s22.81-2.41,22.81-2.41c14.97-1.58,25.68-.28,32.12,3.91,6.44,4.19,10.09,10.4,10.96,18.63.68,6.45-.32,12.06-3,16.85ZM1709.37,1345.88l1.34,12.68,15.01-1.59c6.3-.67,11.04-1.37,14.22-2.12,3.18-.75,5.35-1.63,6.52-2.66,1.17-1.02,1.66-2.39,1.48-4.09s-.9-2.83-2.18-3.59c-1.28-.76-3.57-1.16-6.87-1.19-3.3-.03-8.14.3-14.51.97l-15.01,1.59Z"/>
      <path class="cls-3" d="M1872.35,1307.07c.8,12.58,1.96,26.03,3.48,40.34,1.52,14.38,3.2,27.81,5.04,40.28l-39.81,4.21-33.33-57.87,8.42,60.5-28.58,3.02c-.93-14.44-2.05-27.93-3.38-40.46-1.32-12.45-3.03-25.84-5.14-40.16l40.92-4.33,33.61,59.53-8.48-62.18,27.24-2.88Z"/>
      <path class="cls-3" d="M1948.18,1321.32c-8.87.49-15.42.92-19.65,1.29l4.02,38.03c4.29-.53,10.79-1.48,19.49-2.85l2.34,22.13-64.61,6.83-2.34-22.13c8.57-.46,15.09-.88,19.54-1.28l-4.02-38.03c-4.44.54-10.9,1.49-19.38,2.84l-2.34-22.13,64.61-6.83,2.34,22.13Z"/>
      <path class="cls-3" d="M2048.04,1288.5c.8,12.58,1.96,26.03,3.48,40.34,1.52,14.38,3.2,27.81,5.04,40.28l-39.81,4.21-33.33-57.87,8.42,60.5-28.58,3.02c-.93-14.44-2.05-27.93-3.38-40.46s-3.03-25.84-5.14-40.16l40.92-4.33,33.61,59.53-8.48-62.18,27.24-2.88Z"/>
      <path class="cls-3" d="M2106.41,1317.3l47.48-5.02,4.87,46.04-19.57,2.07-4.42-19.44c-1.48,7.28-4.89,12.92-10.24,16.94-5.35,4.01-12.14,6.45-20.36,7.32-7.49.79-14.32-.17-20.49-2.89-6.17-2.72-11.24-7.02-15.19-12.9-3.96-5.88-6.37-12.97-7.25-21.27-1.4-13.27,1.45-24.18,8.57-32.73,7.12-8.55,19.05-13.71,35.81-15.48,9.56-1.01,18.16-.35,25.79,2,7.63,2.34,14.35,6.51,20.15,12.49-3.16,2.06-9.32,6.16-18.49,12.3l-2.62,1.85c-3.2-2.59-6.8-4.4-10.81-5.44-4.01-1.04-8.16-1.33-12.46-.88-7.12.75-12.22,3.19-15.31,7.3-3.09,4.11-4.34,8.91-3.76,14.4.63,5.93,3,10.52,7.13,13.75,4.13,3.24,10.05,4.45,17.76,3.63,3.34-.35,6.53-1.18,9.58-2.47,3.05-1.3,5.52-3.24,7.42-5.84l-21.68,2.29-1.9-18.01Z"/>
    </g>
    <g>
      <path class="cls-3" d="M2471.26,1294.59l.46-50.98,27.13-2.87-6.37,82.3-34.14,3.61-12.32-44.24-4.02,45.96-32.69,3.46-23.43-79.16,27.13-2.87,10.92,49.11,3.64-50.65,29.69-3.14,14,49.46Z"/>
      <path class="cls-3" d="M2577.55,1314.05c-1.86-4.08-4.31-9.18-7.35-15.3l-35.47,3.75-3.88,16.49-27.91,2.95,22.6-84.02,40.92-4.33,39.89,77.42-28.8,3.04ZM2562.03,1282.07c-3.64-7.49-7.35-14.96-11.14-22.44l-3.43-6.95c-1.88,7.02-4.62,17.62-8.22,31.79l22.8-2.41Z"/>
      <path class="cls-3" d="M2692.85,1263.97c-2.68,4.78-7.73,8.58-15.16,11.38,1.02,1.09,1.74,1.95,2.18,2.58l20.66,23.12-30.25,3.2c-3.91-5.73-9.97-13.79-18.18-24.16l-16.35,1.73,2.73,25.8-26.24,2.77c-.93-14.44-2.05-27.93-3.38-40.46s-3.04-25.95-5.16-40.27l26.24-2.77v.11s22.81-2.41,22.81-2.41c14.97-1.58,25.68-.28,32.12,3.91,6.44,4.19,10.09,10.4,10.96,18.63.68,6.45-.32,12.06-3,16.85ZM2632.22,1248.34l1.34,12.68,15.01-1.59c6.3-.67,11.04-1.37,14.22-2.12,3.18-.75,5.35-1.63,6.52-2.66,1.17-1.02,1.66-2.39,1.48-4.09s-.9-2.83-2.18-3.59c-1.28-.76-3.57-1.16-6.87-1.19-3.3-.03-8.14.3-14.51.97l-15.01,1.59Z"/>
      <path class="cls-3" d="M2795.21,1209.53c.8,12.58,1.96,26.03,3.48,40.34,1.52,14.38,3.2,27.81,5.04,40.28l-39.81,4.21-33.33-57.87,8.42,60.5-28.58,3.02c-.93-14.44-2.05-27.93-3.38-40.46-1.32-12.45-3.03-25.84-5.14-40.16l40.92-4.33,33.61,59.53-8.48-62.18,27.24-2.88Z"/>
      <path class="cls-3" d="M2871.04,1223.77c-8.87.49-15.42.92-19.65,1.29l4.02,38.03c4.29-.53,10.79-1.48,19.49-2.85l2.34,22.13-64.61,6.83-2.34-22.13c8.57-.46,15.09-.88,19.54-1.28l-4.02-38.03c-4.44.54-10.9,1.49-19.38,2.84l-2.34-22.13,64.61-6.83,2.34,22.13Z"/>
      <path class="cls-3" d="M2970.9,1190.96c.8,12.58,1.96,26.03,3.48,40.34,1.52,14.38,3.2,27.81,5.04,40.28l-39.81,4.21-33.33-57.87,8.42,60.5-28.58,3.02c-.93-14.44-2.05-27.93-3.38-40.46-1.32-12.45-3.03-25.84-5.14-40.16l40.92-4.33,33.61,59.53-8.48-62.18,27.24-2.88Z"/>
      <path class="cls-3" d="M3029.26,1219.76l47.48-5.02,4.87,46.04-19.57,2.07-4.42-19.44c-1.48,7.28-4.89,12.92-10.24,16.94-5.35,4.01-12.14,6.45-20.36,7.32-7.49.79-14.32-.17-20.49-2.89-6.17-2.72-11.24-7.02-15.19-12.9-3.96-5.88-6.37-12.97-7.25-21.27-1.4-13.27,1.45-24.18,8.57-32.73,7.12-8.55,19.05-13.71,35.81-15.48,9.56-1.01,18.16-.35,25.79,2,7.63,2.34,14.35,6.51,20.15,12.49-3.16,2.06-9.32,6.16-18.49,12.3l-2.62,1.85c-3.2-2.59-6.8-4.4-10.81-5.44-4.01-1.04-8.16-1.33-12.46-.88-7.12.75-12.22,3.19-15.31,7.3-3.09,4.11-4.34,8.91-3.76,14.4.63,5.93,3,10.52,7.13,13.75,4.13,3.24,10.05,4.45,17.76,3.63,3.34-.35,6.53-1.18,9.58-2.47,3.05-1.3,5.52-3.24,7.42-5.84l-21.68,2.29-1.9-18.01Z"/>
    </g>
    <g>
      <path class="cls-3" d="M3394.12,1197.05l.46-50.98,27.13-2.87-6.37,82.3-34.14,3.61-12.32-44.24-4.02,45.96-32.69,3.46-23.43-79.16,27.13-2.87,10.92,49.11,3.64-50.65,29.69-3.14,14,49.46Z"/>
      <path class="cls-3" d="M3500.41,1216.51c-1.86-4.08-4.31-9.18-7.35-15.3l-35.47,3.75-3.88,16.49-27.91,2.95,22.6-84.02,40.92-4.33,39.89,77.42-28.8,3.04ZM3484.89,1184.53c-3.64-7.49-7.35-14.96-11.14-22.44l-3.43-6.95c-1.88,7.02-4.62,17.62-8.22,31.79l22.8-2.41Z"/>
      <path class="cls-3" d="M3615.71,1166.43c-2.68,4.78-7.73,8.58-15.16,11.38,1.02,1.09,1.74,1.95,2.18,2.58l20.66,23.12-30.25,3.2c-3.91-5.73-9.97-13.79-18.18-24.16l-16.35,1.73,2.73,25.8-26.24,2.77c-.93-14.44-2.05-27.93-3.38-40.46s-3.04-25.95-5.16-40.27l26.24-2.77v.11s22.81-2.41,22.81-2.41c14.97-1.58,25.68-.28,32.12,3.91,6.44,4.19,10.09,10.4,10.96,18.63.68,6.45-.32,12.06-3,16.85ZM3555.08,1150.8l1.34,12.68,15.01-1.59c6.3-.67,11.04-1.37,14.22-2.12,3.18-.75,5.35-1.63,6.52-2.66,1.17-1.02,1.66-2.39,1.48-4.09s-.9-2.83-2.18-3.59c-1.28-.76-3.57-1.16-6.87-1.19-3.3-.03-8.14.3-14.51.97l-15.01,1.59Z"/>
      <path class="cls-3" d="M3718.07,1111.98c.8,12.58,1.96,26.03,3.48,40.34,1.52,14.38,3.2,27.81,5.04,40.28l-39.81,4.21-33.33-57.87,8.42,60.5-28.58,3.02c-.93-14.44-2.05-27.93-3.38-40.46-1.32-12.45-3.03-25.84-5.14-40.16l40.92-4.33,33.61,59.53-8.48-62.18,27.24-2.88Z"/>
      <path class="cls-3" d="M3793.9,1126.23c-8.87.49-15.42.92-19.65,1.29l4.02,38.03c4.29-.53,10.79-1.48,19.49-2.85l2.34,22.13-64.61,6.83-2.34-22.13c8.57-.46,15.09-.88,19.54-1.28l-4.02-38.03c-4.44.54-10.9,1.49-19.38,2.84l-2.34-22.13,64.61-6.83,2.34,22.13Z"/>
      <path class="cls-3" d="M3893.76,1093.41c.8,12.58,1.96,26.03,3.48,40.34s3.2,27.81,5.04,40.28l-39.81,4.21-33.33-57.87,8.42,60.5-28.58,3.02c-.93-14.44-2.05-27.93-3.38-40.46s-3.03-25.84-5.14-40.16l40.92-4.33,33.61,59.53-8.48-62.18,27.24-2.88Z"/>
      <path class="cls-3" d="M3952.12,1122.21l47.48-5.02,4.87,46.04-19.57,2.07-4.42-19.44c-1.48,7.28-4.89,12.92-10.24,16.94-5.35,4.01-12.14,6.45-20.36,7.32-7.49.79-14.32-.17-20.49-2.89-6.17-2.72-11.24-7.02-15.19-12.9-3.96-5.88-6.37-12.97-7.25-21.27-1.4-13.27,1.45-24.18,8.57-32.73,7.12-8.55,19.05-13.71,35.81-15.48,9.56-1.01,18.16-.35,25.79,2,7.63,2.34,14.35,6.51,20.15,12.49-3.16,2.06-9.32,6.16-18.49,12.3l-2.62,1.85c-3.2-2.59-6.8-4.4-10.81-5.44-4.01-1.04-8.16-1.33-12.46-.88-7.12.75-12.22,3.19-15.31,7.3-3.09,4.11-4.34,8.91-3.76,14.4.63,5.93,3,10.52,7.13,13.75,4.13,3.24,10.05,4.45,17.76,3.63,3.34-.35,6.53-1.18,9.58-2.47,3.05-1.3,5.52-3.24,7.42-5.84l-21.68,2.29-1.9-18.01Z"/>
    </g>
    <g>
      <path class="cls-3" d="M4316.98,1099.5l.46-50.98,27.13-2.87-6.37,82.3-34.14,3.61-12.32-44.24-4.02,45.96-32.69,3.46-23.43-79.16,27.13-2.87,10.92,49.11,3.64-50.65,29.69-3.14,14,49.46Z"/>
      <path class="cls-3" d="M4423.27,1118.96c-1.86-4.08-4.31-9.18-7.35-15.3l-35.47,3.75-3.88,16.49-27.91,2.95,22.6-84.02,40.92-4.33,39.89,77.42-28.8,3.04ZM4407.75,1086.99c-3.64-7.49-7.35-14.96-11.14-22.44l-3.43-6.95c-1.88,7.02-4.62,17.62-8.22,31.79l22.8-2.41Z"/>
      <path class="cls-3" d="M4538.57,1068.89c-2.68,4.78-7.73,8.58-15.16,11.38,1.02,1.09,1.74,1.95,2.18,2.58l20.66,23.12-30.25,3.2c-3.91-5.73-9.97-13.79-18.18-24.16l-16.35,1.73,2.73,25.8-26.24,2.77c-.93-14.44-2.05-27.93-3.38-40.46-1.32-12.53-3.04-25.95-5.16-40.27l26.24-2.77v.11s22.81-2.41,22.81-2.41c14.97-1.58,25.68-.28,32.12,3.91,6.44,4.19,10.09,10.4,10.96,18.63.68,6.45-.32,12.06-3,16.85ZM4477.94,1053.25l1.34,12.68,15.01-1.59c6.3-.67,11.04-1.37,14.22-2.12,3.18-.75,5.35-1.63,6.52-2.66,1.17-1.02,1.66-2.39,1.48-4.09s-.9-2.83-2.18-3.59c-1.28-.76-3.57-1.16-6.87-1.19-3.3-.03-8.14.3-14.51.97l-15.01,1.59Z"/>
      <path class="cls-3" d="M4640.93,1014.44c.8,12.58,1.96,26.03,3.48,40.34s3.2,27.81,5.04,40.28l-39.81,4.21-33.33-57.87,8.42,60.5-28.58,3.02c-.93-14.44-2.05-27.93-3.38-40.46-1.32-12.45-3.03-25.84-5.14-40.16l40.92-4.33,33.61,59.53-8.48-62.18,27.24-2.88Z"/>
      <path class="cls-3" d="M4716.76,1028.69c-8.87.49-15.42.92-19.65,1.29l4.02,38.03c4.29-.53,10.79-1.48,19.49-2.85l2.34,22.13-64.61,6.83-2.34-22.13c8.57-.46,15.09-.88,19.54-1.28l-4.02-38.03c-4.44.54-10.9,1.49-19.38,2.84l-2.34-22.13,64.61-6.83,2.34,22.13Z"/>
      <path class="cls-3" d="M4816.62,995.87c.8,12.58,1.96,26.03,3.48,40.34,1.52,14.38,3.2,27.81,5.04,40.28l-39.81,4.21-33.33-57.87,8.42,60.5-28.58,3.02c-.93-14.44-2.05-27.93-3.38-40.46s-3.03-25.84-5.14-40.16l40.92-4.33,33.61,59.53-8.48-62.18,27.24-2.88Z"/>
      <path class="cls-3" d="M4874.98,1024.67l47.48-5.02,4.87,46.04-19.57,2.07-4.42-19.44c-1.48,7.28-4.89,12.92-10.24,16.94-5.35,4.01-12.14,6.45-20.36,7.32-7.49.79-14.32-.17-20.49-2.89-6.17-2.72-11.24-7.02-15.19-12.9-3.96-5.88-6.37-12.97-7.25-21.27-1.4-13.27,1.45-24.18,8.57-32.73,7.12-8.55,19.05-13.71,35.81-15.48,9.56-1.01,18.16-.35,25.79,2,7.63,2.34,14.35,6.51,20.15,12.49-3.16,2.06-9.32,6.16-18.49,12.3l-2.62,1.85c-3.2-2.59-6.8-4.4-10.81-5.44-4.01-1.04-8.16-1.33-12.46-.88-7.12.75-12.22,3.19-15.31,7.3-3.09,4.11-4.34,8.91-3.76,14.4.63,5.93,3,10.52,7.13,13.75,4.13,3.24,10.05,4.45,17.76,3.63,3.34-.35,6.53-1.18,9.58-2.47,3.05-1.3,5.52-3.24,7.42-5.84l-21.68,2.29-1.9-18.01Z"/>
    </g>
    <g>
      <path class="cls-3" d="M5239.84,1001.96l.46-50.98,27.13-2.87-6.37,82.3-34.14,3.61-12.32-44.24-4.02,45.96-32.69,3.46-23.43-79.16,27.13-2.87,10.92,49.11,3.64-50.65,29.69-3.14,14,49.46Z"/>
      <path class="cls-3" d="M5346.13,1021.42c-1.86-4.08-4.31-9.18-7.35-15.3l-35.47,3.75-3.88,16.49-27.91,2.95,22.6-84.02,40.92-4.33,39.89,77.42-28.8,3.04ZM5330.61,989.44c-3.64-7.49-7.35-14.96-11.14-22.44l-3.43-6.95c-1.88,7.02-4.62,17.62-8.22,31.79l22.8-2.41Z"/>
      <path class="cls-3" d="M5461.43,971.34c-2.68,4.78-7.73,8.58-15.16,11.38,1.02,1.09,1.74,1.95,2.18,2.58l20.66,23.12-30.25,3.2c-3.91-5.73-9.97-13.79-18.18-24.16l-16.35,1.73,2.73,25.8-26.24,2.77c-.93-14.44-2.05-27.93-3.38-40.46-1.32-12.53-3.04-25.95-5.16-40.27l26.24-2.77v.11s22.81-2.41,22.81-2.41c14.97-1.58,25.68-.28,32.12,3.91,6.44,4.19,10.09,10.4,10.96,18.63.68,6.45-.32,12.06-3,16.85ZM5400.8,955.71l1.34,12.68,15.01-1.59c6.3-.67,11.04-1.37,14.22-2.12,3.18-.75,5.35-1.63,6.52-2.66,1.17-1.02,1.66-2.39,1.48-4.09s-.9-2.83-2.18-3.59c-1.28-.76-3.57-1.16-6.87-1.19-3.3-.03-8.14.3-14.51.97l-15.01,1.59Z"/>
    </g>
    <rect class="cls-3" x="-459.85" y="1178.34" width="6347" height="14.16" transform="translate(-109.57 291.8) rotate(-6.03)"/>
    <rect class="cls-3" x="-445.08" y="1318.07" width="6347" height="14.16" transform="translate(-124.17 294.13) rotate(-6.03)"/>
  </g>
  <rect class="cls-1" y="10.92" width="5442.52" height="5658.96"/>
</svg>